<?xml version="1.0" encoding="UTF-8" standalone="no"?>
<!-- Created with Inkscape (http://www.inkscape.org/) -->

<svg
   xmlns:dc="http://purl.org/dc/elements/1.1/"
   xmlns:cc="http://creativecommons.org/ns#"
   xmlns:rdf="http://www.w3.org/1999/02/22-rdf-syntax-ns#"
   xmlns:svg="http://www.w3.org/2000/svg"
   xmlns="http://www.w3.org/2000/svg"
   xmlns:sodipodi="http://sodipodi.sourceforge.net/DTD/sodipodi-0.dtd"
   xmlns:inkscape="http://www.inkscape.org/namespaces/inkscape"
   id="svg4155"
   version="1.1"
   inkscape:version="0.91 r13725"
   xml:space="preserve"
   width="765"
   height="990"
   viewBox="0 0 765 990"
   sodipodi:docname="ethel.svg"><metadata
     id="metadata4161"><rdf:RDF><cc:Work
         rdf:about=""><dc:format>image/svg+xml</dc:format><dc:type
           rdf:resource="http://purl.org/dc/dcmitype/StillImage" /><dc:title /></cc:Work></rdf:RDF></metadata><defs
     id="defs4159"><clipPath
       clipPathUnits="userSpaceOnUse"
       id="clipPath4171"><path
         d="M 0,792 612,792 612,0 0,0 0,792 Z"
         id="path4173"
         inkscape:connector-curvature="0" /></clipPath></defs><sodipodi:namedview
     pagecolor="#ffffff"
     bordercolor="#666666"
     borderopacity="1"
     objecttolerance="10"
     gridtolerance="10"
     guidetolerance="10"
     inkscape:pageopacity="0"
     inkscape:pageshadow="2"
     inkscape:window-width="1920"
     inkscape:window-height="1080"
     id="namedview4157"
     showgrid="false"
     inkscape:zoom="0.90505051"
     inkscape:cx="112.76056"
     inkscape:cy="473.23928"
     inkscape:window-x="0"
     inkscape:window-y="0"
     inkscape:window-maximized="1"
     inkscape:current-layer="g4169" /><g
     id="g4163"
     inkscape:groupmode="layer"
     inkscape:label="ethel"
     transform="matrix(1.25,0,0,-1.25,0,990)"><g
       id="g4167"
       transform="translate(4.4196424,38.892857)"><g
         id="g4169"
         clip-path="url(#clipPath4171)"><g
           id="g4175"
           transform="translate(518.0098,89.2042)"
           style="stroke:#b1b1b1;stroke-opacity:1;stroke-width:1.6;stroke-miterlimit:4;stroke-dasharray:none"><path
             d="M 0,0 C 0,0 21.186,-0.292 19.537,7.465 17.887,15.222 3.983,16.967 3.983,16.967"
             style="fill:#ffffff;fill-opacity:1;fill-rule:nonzero;stroke:#b1b1b1;stroke-width:1.6;stroke-linecap:butt;stroke-linejoin:miter;stroke-miterlimit:4;stroke-dasharray:none;stroke-opacity:1"
             id="path4177"
             inkscape:connector-curvature="0" /></g><g
           id="g4179"
           transform="translate(518.0098,73.4632)"
           style="stroke:#b1b1b1;stroke-opacity:1;stroke-width:1.6;stroke-miterlimit:4;stroke-dasharray:none"><path
             d="m 0,0 c 0,0 19.233,-0.292 17.583,7.465 -1.649,7.757 -17.969,9.502 -17.969,9.502"
             style="fill:#ffffff;fill-opacity:1;fill-rule:nonzero;stroke:#b1b1b1;stroke-width:1.6;stroke-linecap:butt;stroke-linejoin:miter;stroke-miterlimit:4;stroke-dasharray:none;stroke-opacity:1"
             id="path4181"
             inkscape:connector-curvature="0" /></g><g
           id="g4183"
           transform="translate(518.3503,55.5003)"
           style="stroke:#b1b1b1;stroke-opacity:1;stroke-width:1.6;stroke-miterlimit:4;stroke-dasharray:none"><path
             d="M 0,0 C 0,0 21.186,-0.292 19.537,7.465 17.887,15.222 -0.341,17.963 -0.341,17.963"
             style="fill:#ffffff;fill-opacity:1;fill-rule:nonzero;stroke:#b1b1b1;stroke-width:1.6;stroke-linecap:butt;stroke-linejoin:miter;stroke-miterlimit:4;stroke-dasharray:none;stroke-opacity:1"
             id="path4185"
             inkscape:connector-curvature="0" /></g><g
           id="g4187"
           transform="translate(521.0837,103.4667)"
           style="stroke:#b1b1b1;stroke-opacity:1;stroke-width:1.6;stroke-miterlimit:4;stroke-dasharray:none"><path
             d="M 0,0 C 0,0 23.028,-0.291 21.379,7.466 19.729,15.223 5.825,16.968 5.825,16.968"
             style="fill:#ffffff;fill-opacity:1;fill-rule:nonzero;stroke:#b1b1b1;stroke-width:1.6;stroke-linecap:butt;stroke-linejoin:miter;stroke-miterlimit:4;stroke-dasharray:none;stroke-opacity:1"
             id="path4189"
             inkscape:connector-curvature="0" /></g><g
           id="g4191"
           transform="translate(136.3518,424.7958)"
           style="stroke:#b1b1b1;stroke-opacity:1;stroke-width:1.6;stroke-miterlimit:4;stroke-dasharray:none"><path
             d="m 0,0 c 32.38,1.012 69.818,11.13 145.708,50.593 75.89,39.463 35.415,94.103 22.454,122.435 0,0 -13.347,21.249 -88.225,-5.059 C 5.059,141.661 -25.297,82.973 -31.368,63.747 -37.439,44.522 -54.411,-36.46 -4.919,-88.379"
             style="fill:none;stroke:#b1b1b1;stroke-width:1.6;stroke-linecap:butt;stroke-linejoin:miter;stroke-miterlimit:4;stroke-dasharray:none;stroke-opacity:1"
             id="path4193"
             inkscape:connector-curvature="0" /></g><g
           id="g4195"
           transform="translate(304.5135,597.8242)"
           style="stroke:#b1b1b1;stroke-opacity:1;stroke-width:1.6;stroke-miterlimit:4;stroke-dasharray:none"><path
             d="m 0,0 c 18.021,5.059 75.697,17.202 109.088,-30.356 33.392,-47.557 47.558,-77.913 28.333,-133.566 0,0 -11.131,18.214 -12.143,28.332 -28.332,-2.023 -61.723,23.273 -105.285,56.228"
             style="fill:none;stroke:#b1b1b1;stroke-width:1.6;stroke-linecap:butt;stroke-linejoin:miter;stroke-miterlimit:4;stroke-dasharray:none;stroke-opacity:1"
             id="path4197"
             inkscape:connector-curvature="0" /></g><g
           id="g4199"
           transform="translate(136.6815,540.0655)"
           style="stroke:#b1b1b1;stroke-opacity:1;stroke-width:1.6;stroke-miterlimit:4;stroke-dasharray:none"><path
             d="m 0,0 c -20.567,5.142 -53.958,29.702 -46.875,62.956 7.083,33.253 59.7,80.811 105.233,85.87 45.534,5.06 103.596,-6.071 109.474,-33.391 5.879,-27.32 4.776,-50.318 -7.827,-52.479"
             style="fill:none;stroke:#b1b1b1;stroke-width:1.6;stroke-linecap:butt;stroke-linejoin:miter;stroke-miterlimit:4;stroke-dasharray:none;stroke-opacity:1"
             id="path4201"
             inkscape:connector-curvature="0" /></g><g
           id="g4203"
           transform="translate(130.1783,542.186)"
           style="stroke:#b1b1b1;stroke-opacity:1;stroke-width:1.6;stroke-miterlimit:4;stroke-dasharray:none"><path
             d="m 0,0 c 15.018,15.658 39.126,36.057 58.412,44.958 19.286,8.902 47.103,19.657 65.648,21.883 18.545,2.225 42.528,0.828 49.081,-1.812"
             style="fill:none;stroke:#b1b1b1;stroke-width:1.6;stroke-linecap:butt;stroke-linejoin:miter;stroke-miterlimit:4;stroke-dasharray:none;stroke-opacity:1"
             id="path4205"
             inkscape:connector-curvature="0" /></g><g
           id="g4207"
           transform="translate(302.4484,382.3367)"
           style="stroke:#b1b1b1;stroke-opacity:1;stroke-width:1.6;stroke-miterlimit:4;stroke-dasharray:none"><path
             d="m 0,0 -11.366,10.002 c 0,0 -84.111,-0.909 -87.749,-2.273 -3.637,-1.364 -10.911,-2.673 -5.91,-13.839 5.001,-11.167 2.273,-14.477 20.914,-14.186 18.641,0.291 50.921,0 50.921,0 0,0 12.276,-1.073 19.096,3.474 C -7.274,-12.276 0,0 0,0 Z"
             style="fill:none;stroke:#b1b1b1;stroke-width:1.6;stroke-linecap:butt;stroke-linejoin:miter;stroke-miterlimit:4;stroke-dasharray:none;stroke-opacity:1"
             id="path4209"
             inkscape:connector-curvature="0" /></g><g
           id="g4211"
           transform="translate(353.9331,382.3367)"
           style="stroke:#b1b1b1;stroke-opacity:1;stroke-width:1.6;stroke-miterlimit:4;stroke-dasharray:none"><path
             d="m 0,0 11.366,10.002 c 0,0 84.111,-0.909 87.749,-2.273 3.637,-1.364 10.911,-2.673 5.91,-13.839 -5.001,-11.167 -2.273,-14.477 -20.914,-14.186 -18.641,0.291 -50.921,0 -50.921,0 0,0 -12.276,-1.073 -19.096,3.474 C 7.274,-12.276 0,0 0,0 Z"
             style="fill:none;stroke:#b1b1b1;stroke-width:1.6;stroke-linecap:butt;stroke-linejoin:miter;stroke-miterlimit:4;stroke-dasharray:none;stroke-opacity:1"
             id="path4213"
             inkscape:connector-curvature="0" /></g><g
           id="g4215"
           transform="translate(302.4484,382.3367)"
           style="stroke:#b1b1b1;stroke-opacity:1;stroke-width:1.6;stroke-miterlimit:4;stroke-dasharray:none"><path
             d="M 0,0 C 10.912,5.001 17.596,5.911 24.483,5.911 31.371,5.911 46.632,7.19 51.485,0"
             style="fill:none;stroke:#b1b1b1;stroke-width:1.6;stroke-linecap:butt;stroke-linejoin:miter;stroke-miterlimit:4;stroke-dasharray:none;stroke-opacity:1"
             id="path4217"
             inkscape:connector-curvature="0" /></g><g
           id="g4219"
           transform="translate(441.9341,433.9026)"
           style="stroke:#b1b1b1;stroke-opacity:1;stroke-width:1.6;stroke-miterlimit:4;stroke-dasharray:none"><path
             d="M 0,0 C 1.003,-21.559 1.271,-32.925 0,-41.563"
             style="fill:none;stroke:#b1b1b1;stroke-width:1.6;stroke-linecap:butt;stroke-linejoin:miter;stroke-miterlimit:4;stroke-dasharray:none;stroke-opacity:1"
             id="path4221"
             inkscape:connector-curvature="0" /></g><g
           id="g4223"
           transform="translate(431.1157,361.9305)"
           style="stroke:#b1b1b1;stroke-opacity:1;stroke-width:1.6;stroke-miterlimit:4;stroke-dasharray:none"><path
             d="m 0,0 c 8.638,-18.694 24.097,-73.253 -5.911,-105.533 -30.007,-32.281 -59.695,-66.38 -98.273,-67.744 -38.578,-1.364 -73.586,2.274 -97.228,45.011"
             style="fill:none;stroke:#b1b1b1;stroke-width:1.6;stroke-linecap:butt;stroke-linejoin:miter;stroke-miterlimit:4;stroke-dasharray:none;stroke-opacity:1"
             id="path4225"
             inkscape:connector-curvature="0" /></g><g
           id="g4227"
           transform="translate(195.7235,382.3367)"
           style="stroke:#b1b1b1;stroke-opacity:1;stroke-width:1.6;stroke-miterlimit:4;stroke-dasharray:none"><path
             d="m 0,0 -49.253,-6.11 c 16.19,16.189 16.19,37.439 14.72,51.191"
             style="fill:none;stroke:#b1b1b1;stroke-width:1.6;stroke-linecap:butt;stroke-linejoin:miter;stroke-miterlimit:4;stroke-dasharray:none;stroke-opacity:1"
             id="path4229"
             inkscape:connector-curvature="0" /></g><g
           id="g4231"
           transform="translate(148.3205,370.5157)"
           style="stroke:#b1b1b1;stroke-opacity:1;stroke-width:1.6;stroke-miterlimit:4;stroke-dasharray:none"><path
             d="m 0,0 c -6.82,5.001 -19.55,13.967 -19.55,-8.475 0,-22.442 3.12,-36.536 17.7,-46.993 14.58,-10.457 11.398,-2.728 11.398,-2.728"
             style="fill:none;stroke:#b1b1b1;stroke-width:1.6;stroke-linecap:butt;stroke-linejoin:miter;stroke-miterlimit:4;stroke-dasharray:none;stroke-opacity:1"
             id="path4233"
             inkscape:connector-curvature="0" /></g><g
           id="g4235"
           transform="translate(146.4705,315.0479)"
           style="stroke:#b1b1b1;stroke-opacity:1;stroke-width:1.6;stroke-miterlimit:4;stroke-dasharray:none"><path
             d="M 0,0 C 6.397,-23.187 15.035,-50.012 14.58,-61.833 14.126,-73.654 5.424,-117.756 0,-130.031 c -5.424,-12.276 -25.884,-31.371 -43.161,-39.101 -17.277,-7.729 -67.498,-30.007 -70.471,-30.461"
             style="fill:none;stroke:#b1b1b1;stroke-width:1.6;stroke-linecap:butt;stroke-linejoin:miter;stroke-miterlimit:4;stroke-dasharray:none;stroke-opacity:1"
             id="path4237"
             inkscape:connector-curvature="0" /></g><g
           id="g4239"
           transform="translate(181.9649,241.8484)"
           style="stroke:#b1b1b1;stroke-opacity:1;stroke-width:1.6;stroke-miterlimit:4;stroke-dasharray:none"><path
             d="m 0,0 c 14.549,-17.732 27.861,-25.006 42.119,-26.597 14.258,-1.592 18.489,0 18.489,0"
             style="fill:none;stroke:#b1b1b1;stroke-width:1.6;stroke-linecap:butt;stroke-linejoin:miter;stroke-miterlimit:4;stroke-dasharray:none;stroke-opacity:1"
             id="path4241"
             inkscape:connector-curvature="0" /></g><g
           id="g4243"
           transform="translate(338.8208,376.2264)"
           style="stroke:#b1b1b1;stroke-opacity:1;stroke-width:1.6;stroke-miterlimit:4;stroke-dasharray:none"><path
             d="m 0,0 c -1.364,-10.257 -4.092,-19.805 0,-22.988 4.092,-3.182 10.002,-6.819 10.002,-6.819"
             style="fill:none;stroke:#b1b1b1;stroke-width:1.6;stroke-linecap:butt;stroke-linejoin:miter;stroke-miterlimit:4;stroke-dasharray:none;stroke-opacity:1"
             id="path4245"
             inkscape:connector-curvature="0" /></g><g
           id="g4247"
           transform="translate(328.1908,343.07)"
           style="stroke:#b1b1b1;stroke-opacity:1;stroke-width:1.6;stroke-miterlimit:4;stroke-dasharray:none"><path
             d="m 0,0 c 6.538,3.349 21.542,8.35 31.089,-3.471 9.548,-11.821 14.095,-36.827 -10.457,-41.828 -24.551,-5.001 -33.189,-1.364 -40.009,5.456"
             style="fill:none;stroke:#b1b1b1;stroke-width:1.6;stroke-linecap:butt;stroke-linejoin:miter;stroke-miterlimit:4;stroke-dasharray:none;stroke-opacity:1"
             id="path4249"
             inkscape:connector-curvature="0" /></g><g
           id="g4251"
           transform="translate(579.1618,115.4545)"
           style="stroke:#b1b1b1;stroke-opacity:1;stroke-width:1.6;stroke-miterlimit:4;stroke-dasharray:none"><path
             d="m 0,0 c -57.528,2.921 -118.592,12.539 -137.228,30.065 -18.635,17.525 -37.134,39.918 -39.081,55.496 -1.948,15.578 -4.411,27.181 -4.411,27.181"
             style="fill:none;stroke:#b1b1b1;stroke-width:1.6;stroke-linecap:butt;stroke-linejoin:miter;stroke-miterlimit:4;stroke-dasharray:none;stroke-opacity:1"
             id="path4253"
             inkscape:connector-curvature="0" /></g><g
           id="g4255"
           transform="translate(49.7673,122.3421)"
           style="stroke:#b1b1b1;stroke-opacity:1;stroke-width:1.6;stroke-miterlimit:4;stroke-dasharray:none"><path
             d="m 0,0 c 11.346,-7.979 25.95,-25.504 29.845,-35.24 3.894,-9.736 9.225,-31.156 9.225,-31.156"
             style="fill:none;stroke:#b1b1b1;stroke-width:1.6;stroke-linecap:butt;stroke-linejoin:miter;stroke-miterlimit:4;stroke-dasharray:none;stroke-opacity:1"
             id="path4257"
             inkscape:connector-curvature="0" /></g><g
           id="g4263"
           transform="translate(517.7393,55.9463)"
           style="stroke:#b1b1b1;stroke-opacity:1;stroke-width:1.6;stroke-miterlimit:4;stroke-dasharray:none"><path
             d="m 0,0 c 0,0 -0.119,21.42 0,29.208 0.042,2.753 0.688,17.164 10.425,34.713"
             style="fill:none;stroke:#b1b1b1;stroke-width:1.6;stroke-linecap:butt;stroke-linejoin:miter;stroke-miterlimit:4;stroke-dasharray:none;stroke-opacity:1"
             id="path4265"
             inkscape:connector-curvature="0" /></g><g
           id="g4267"
           transform="translate(114.7006,152.3066)"
           style="stroke:#b1b1b1;stroke-opacity:1;stroke-width:1.6;stroke-miterlimit:4;stroke-dasharray:none"><path
             d="m 0,0 c 27.407,-12.339 74.814,-40.151 89.353,-50.264 14.538,-10.114 25.65,-16.435 25.65,-16.435 0,0 69.669,14.538 97.228,12.642 27.56,-1.896 74.967,-8.217 91.401,-12.642 0,0 22.188,46.915 36.062,51.902"
             style="fill:none;stroke:#b1b1b1;stroke-width:1.6;stroke-linecap:butt;stroke-linejoin:miter;stroke-miterlimit:4;stroke-dasharray:none;stroke-opacity:1"
             id="path4269"
             inkscape:connector-curvature="0" /></g><g
           id="g4271"
           transform="translate(128.7703,157.0344)"
           style="stroke:#b1b1b1;stroke-opacity:1;stroke-width:1.6;stroke-miterlimit:4;stroke-dasharray:none"><path
             d="m 0,0 c 32.3,-18.331 124.834,-83.332 171.39,-83.964 46.556,-0.632 72.868,6.959 87.303,18.282 14.435,11.322 57.163,42.715 57.922,51.354"
             style="fill:none;stroke:#b1b1b1;stroke-width:1.6;stroke-linecap:butt;stroke-linejoin:miter;stroke-miterlimit:4;stroke-dasharray:none;stroke-opacity:1"
             id="path4273"
             inkscape:connector-curvature="0" /></g><g
           id="g4275"
           transform="translate(460.2647,144.3867)"
           style="stroke:#b1b1b1;stroke-opacity:1;stroke-width:1.6;stroke-miterlimit:4;stroke-dasharray:none"><path
             d="m 0,0 c 1.596,-5.753 -1.774,-11.71 -7.527,-13.305 -5.752,-1.596 -11.709,1.774 -13.305,7.526 -1.596,5.753 1.774,11.71 7.527,13.306 C -7.553,9.122 -1.596,5.753 0,0"
             style="fill:#ffffff;fill-opacity:1;fill-rule:nonzero;stroke:#b1b1b1;stroke-opacity:1;stroke-width:1.6;stroke-miterlimit:4;stroke-dasharray:none"
             id="path4277"
             inkscape:connector-curvature="0" /></g><g
           id="g4279"
           transform="translate(460.2647,144.3867)"
           style="stroke:#b1b1b1;stroke-opacity:1;stroke-width:1.6;stroke-miterlimit:4;stroke-dasharray:none"><path
             d="m 0,0 c 1.596,-5.753 -1.774,-11.71 -7.527,-13.305 -5.752,-1.596 -11.709,1.774 -13.305,7.526 -1.596,5.753 1.774,11.71 7.527,13.306 C -7.553,9.122 -1.596,5.753 0,0 Z"
             style="fill:none;stroke:#b1b1b1;stroke-width:1.6;stroke-linecap:butt;stroke-linejoin:miter;stroke-miterlimit:4;stroke-dasharray:none;stroke-opacity:1"
             id="path4281"
             inkscape:connector-curvature="0" /></g><g
           id="g4283"
           transform="translate(447.8681,132.6139)"
           style="stroke:#b1b1b1;stroke-opacity:1;stroke-width:1.6;stroke-miterlimit:4;stroke-dasharray:none"><path
             d="m 0,0 c 1.644,-5.926 -1.827,-12.062 -7.753,-13.705 -5.925,-1.644 -12.062,1.827 -13.705,7.752 -1.644,5.926 1.827,12.062 7.753,13.706 C -7.78,9.397 -1.644,5.926 0,0"
             style="fill:#ffffff;fill-opacity:1;fill-rule:nonzero;stroke:#b1b1b1;stroke-opacity:1;stroke-width:1.6;stroke-miterlimit:4;stroke-dasharray:none"
             id="path4285"
             inkscape:connector-curvature="0" /></g><g
           id="g4287"
           transform="translate(447.8681,132.6139)"
           style="stroke:#b1b1b1;stroke-opacity:1;stroke-width:1.6;stroke-miterlimit:4;stroke-dasharray:none"><path
             d="m 0,0 c 1.644,-5.926 -1.827,-12.062 -7.753,-13.705 -5.925,-1.644 -12.062,1.827 -13.705,7.752 -1.644,5.926 1.827,12.062 7.753,13.706 C -7.78,9.397 -1.644,5.926 0,0 Z"
             style="fill:none;stroke:#b1b1b1;stroke-width:1.6;stroke-linecap:butt;stroke-linejoin:miter;stroke-miterlimit:4;stroke-dasharray:none;stroke-opacity:1"
             id="path4289"
             inkscape:connector-curvature="0" /></g><g
           id="g4291"
           transform="translate(435.4715,120.8411)"
           style="stroke:#b1b1b1;stroke-opacity:1;stroke-width:1.6;stroke-miterlimit:4;stroke-dasharray:none"><path
             d="m 0,0 c 1.692,-6.099 -1.881,-12.414 -7.979,-14.106 -6.099,-1.691 -12.414,1.881 -14.106,7.98 -1.692,6.098 1.881,12.414 7.979,14.105 C -8.007,9.671 -1.692,6.099 0,0"
             style="fill:#ffffff;fill-opacity:1;fill-rule:nonzero;stroke:#b1b1b1;stroke-opacity:1;stroke-width:1.6;stroke-miterlimit:4;stroke-dasharray:none"
             id="path4293"
             inkscape:connector-curvature="0" /></g><g
           id="g4295"
           transform="translate(435.4715,120.8411)"
           style="stroke:#b1b1b1;stroke-opacity:1;stroke-width:1.6;stroke-miterlimit:4;stroke-dasharray:none"><path
             d="m 0,0 c 1.692,-6.099 -1.881,-12.414 -7.979,-14.106 -6.099,-1.691 -12.414,1.881 -14.106,7.98 -1.692,6.098 1.881,12.414 7.979,14.105 C -8.007,9.671 -1.692,6.099 0,0 Z"
             style="fill:none;stroke:#b1b1b1;stroke-width:1.6;stroke-linecap:butt;stroke-linejoin:miter;stroke-miterlimit:4;stroke-dasharray:none;stroke-opacity:1"
             id="path4297"
             inkscape:connector-curvature="0" /></g><g
           id="g4299"
           transform="translate(425.0285,107.1147)"
           style="stroke:#b1b1b1;stroke-opacity:1;stroke-width:1.6;stroke-miterlimit:4;stroke-dasharray:none"><path
             d="m 0,0 c 1.74,-6.272 -1.934,-12.766 -8.206,-14.506 -6.271,-1.739 -12.766,1.934 -14.505,8.206 -1.74,6.271 1.934,12.766 8.205,14.506 C -8.234,9.945 -1.74,6.272 0,0"
             style="fill:#ffffff;fill-opacity:1;fill-rule:nonzero;stroke:#b1b1b1;stroke-opacity:1;stroke-width:1.6;stroke-miterlimit:4;stroke-dasharray:none"
             id="path4301"
             inkscape:connector-curvature="0" /></g><g
           id="g4303"
           transform="translate(425.0285,107.1147)"
           style="stroke:#b1b1b1;stroke-opacity:1;stroke-width:1.6;stroke-miterlimit:4;stroke-dasharray:none"><path
             d="m 0,0 c 1.74,-6.272 -1.934,-12.766 -8.206,-14.506 -6.271,-1.739 -12.766,1.934 -14.505,8.206 -1.74,6.271 1.934,12.766 8.205,14.506 C -8.234,9.945 -1.74,6.272 0,0 Z"
             style="fill:none;stroke:#b1b1b1;stroke-width:1.6;stroke-linecap:butt;stroke-linejoin:miter;stroke-miterlimit:4;stroke-dasharray:none;stroke-opacity:1"
             id="path4305"
             inkscape:connector-curvature="0" /></g><g
           id="g4307"
           transform="translate(410.6783,97.2955)"
           style="stroke:#b1b1b1;stroke-opacity:1;stroke-width:1.6;stroke-miterlimit:4;stroke-dasharray:none"><path
             d="m 0,0 c 1.788,-6.445 -1.987,-13.118 -8.432,-14.906 -6.444,-1.788 -13.118,1.988 -14.906,8.432 -1.787,6.445 1.988,13.118 8.432,14.906 C -8.461,10.22 -1.788,6.445 0,0"
             style="fill:#ffffff;fill-opacity:1;fill-rule:nonzero;stroke:#b1b1b1;stroke-opacity:1;stroke-width:1.6;stroke-miterlimit:4;stroke-dasharray:none"
             id="path4309"
             inkscape:connector-curvature="0" /></g><g
           id="g4311"
           transform="translate(410.6783,97.2955)"
           style="stroke:#b1b1b1;stroke-opacity:1;stroke-width:1.6;stroke-miterlimit:4;stroke-dasharray:none"><path
             d="m 0,0 c 1.788,-6.445 -1.987,-13.118 -8.432,-14.906 -6.444,-1.788 -13.118,1.988 -14.906,8.432 -1.787,6.445 1.988,13.118 8.432,14.906 C -8.461,10.22 -1.788,6.445 0,0 Z"
             style="fill:none;stroke:#b1b1b1;stroke-width:1.6;stroke-linecap:butt;stroke-linejoin:miter;stroke-miterlimit:4;stroke-dasharray:none;stroke-opacity:1"
             id="path4313"
             inkscape:connector-curvature="0" /></g><g
           id="g4315"
           transform="translate(396.2035,80.8797)"
           style="stroke:#b1b1b1;stroke-opacity:1;stroke-width:1.6;stroke-miterlimit:4;stroke-dasharray:none"><path
             d="m 0,0 c -1.851,-6.613 -8.713,-10.474 -15.326,-8.623 -6.613,1.851 -10.474,8.713 -8.623,15.326 1.851,6.613 8.713,10.474 15.326,8.623 C -2.01,13.475 1.851,6.613 0,0"
             style="fill:#ffffff;fill-opacity:1;fill-rule:nonzero;stroke:#b1b1b1;stroke-opacity:1;stroke-width:1.6;stroke-miterlimit:4;stroke-dasharray:none"
             id="path4317"
             inkscape:connector-curvature="0" /></g><g
           id="g4319"
           transform="translate(396.2035,80.8797)"
           style="stroke:#b1b1b1;stroke-opacity:1;stroke-width:1.6;stroke-miterlimit:4;stroke-dasharray:none"><path
             d="m 0,0 c -1.851,-6.613 -8.713,-10.474 -15.326,-8.623 -6.613,1.851 -10.474,8.713 -8.623,15.326 1.851,6.613 8.713,10.474 15.326,8.623 C -2.01,13.475 1.851,6.613 0,0 Z"
             style="fill:none;stroke:#b1b1b1;stroke-width:1.6;stroke-linecap:butt;stroke-linejoin:miter;stroke-miterlimit:4;stroke-dasharray:none;stroke-opacity:1"
             id="path4321"
             inkscape:connector-curvature="0" /></g><g
           id="g4323"
           transform="translate(379.505,73.3068)"
           style="stroke:#b1b1b1;stroke-opacity:1;stroke-width:1.6;stroke-miterlimit:4;stroke-dasharray:none"><path
             d="m 0,0 c -1.899,-6.786 -8.94,-10.748 -15.727,-8.848 -6.786,1.899 -10.747,8.94 -8.848,15.726 1.9,6.786 8.941,10.748 15.727,8.849 C -2.062,13.827 1.899,6.786 0,0"
             style="fill:#ffffff;fill-opacity:1;fill-rule:nonzero;stroke:#b1b1b1;stroke-opacity:1;stroke-width:1.6;stroke-miterlimit:4;stroke-dasharray:none"
             id="path4325"
             inkscape:connector-curvature="0" /></g><g
           id="g4327"
           transform="translate(379.505,73.3068)"
           style="stroke:#b1b1b1;stroke-opacity:1;stroke-width:1.6;stroke-miterlimit:4;stroke-dasharray:none"><path
             d="m 0,0 c -1.899,-6.786 -8.94,-10.748 -15.727,-8.848 -6.786,1.899 -10.747,8.94 -8.848,15.726 1.9,6.786 8.941,10.748 15.727,8.849 C -2.062,13.827 1.899,6.786 0,0 Z"
             style="fill:none;stroke:#b1b1b1;stroke-width:1.6;stroke-linecap:butt;stroke-linejoin:miter;stroke-miterlimit:4;stroke-dasharray:none;stroke-opacity:1"
             id="path4329"
             inkscape:connector-curvature="0" /></g><g
           id="g4331"
           transform="translate(362.8066,69.6412)"
           style="stroke:#b1b1b1;stroke-opacity:1;stroke-width:1.6;stroke-miterlimit:4;stroke-dasharray:none"><path
             d="m 0,0 c -1.948,-6.959 -9.168,-11.021 -16.127,-9.074 -6.959,1.948 -11.022,9.169 -9.074,16.128 1.948,6.959 9.168,11.021 16.127,9.073 C -2.115,14.179 1.948,6.959 0,0"
             style="fill:#ffffff;fill-opacity:1;fill-rule:nonzero;stroke:#b1b1b1;stroke-opacity:1;stroke-width:1.6;stroke-miterlimit:4;stroke-dasharray:none"
             id="path4333"
             inkscape:connector-curvature="0" /></g><g
           id="g4335"
           transform="translate(362.8066,69.6412)"
           style="stroke:#b1b1b1;stroke-opacity:1;stroke-width:1.6;stroke-miterlimit:4;stroke-dasharray:none"><path
             d="m 0,0 c -1.948,-6.959 -9.168,-11.021 -16.127,-9.074 -6.959,1.948 -11.022,9.169 -9.074,16.128 1.948,6.959 9.168,11.021 16.127,9.073 C -2.115,14.179 1.948,6.959 0,0 Z"
             style="fill:none;stroke:#b1b1b1;stroke-width:1.6;stroke-linecap:butt;stroke-linejoin:miter;stroke-miterlimit:4;stroke-dasharray:none;stroke-opacity:1"
             id="path4337"
             inkscape:connector-curvature="0" /></g><g
           id="g4339"
           transform="translate(348.0618,67.9293)"
           style="stroke:#b1b1b1;stroke-opacity:1;stroke-width:1.6;stroke-miterlimit:4;stroke-dasharray:none"><path
             d="m 0,0 c -1.996,-7.132 -9.396,-11.295 -16.528,-9.299 -7.132,1.996 -11.295,9.396 -9.299,16.528 1.996,7.132 9.396,11.295 16.528,9.299 C -2.167,14.532 1.996,7.132 0,0"
             style="fill:#ffffff;fill-opacity:1;fill-rule:nonzero;stroke:#b1b1b1;stroke-opacity:1;stroke-width:1.6;stroke-miterlimit:4;stroke-dasharray:none"
             id="path4341"
             inkscape:connector-curvature="0" /></g><g
           id="g4343"
           transform="translate(348.0618,67.9293)"
           style="stroke:#b1b1b1;stroke-opacity:1;stroke-width:1.6;stroke-miterlimit:4;stroke-dasharray:none"><path
             d="m 0,0 c -1.996,-7.132 -9.396,-11.295 -16.528,-9.299 -7.132,1.996 -11.295,9.396 -9.299,16.528 1.996,7.132 9.396,11.295 16.528,9.299 C -2.167,14.532 1.996,7.132 0,0 Z"
             style="fill:none;stroke:#b1b1b1;stroke-width:1.6;stroke-linecap:butt;stroke-linejoin:miter;stroke-miterlimit:4;stroke-dasharray:none;stroke-opacity:1"
             id="path4345"
             inkscape:connector-curvature="0" /></g><g
           id="g4347"
           transform="translate(329.4097,68.1711)"
           style="stroke:#b1b1b1;stroke-opacity:1;stroke-width:1.6;stroke-miterlimit:4;stroke-dasharray:none"><path
             d="m 0,0 c -2.045,-7.305 -9.624,-11.569 -16.928,-9.524 -7.305,2.044 -11.57,9.623 -9.525,16.928 2.045,7.305 9.624,11.569 16.929,9.524 C -2.22,14.884 2.045,7.305 0,0"
             style="fill:#ffffff;fill-opacity:1;fill-rule:nonzero;stroke:#b1b1b1;stroke-opacity:1;stroke-width:1.6;stroke-miterlimit:4;stroke-dasharray:none"
             id="path4349"
             inkscape:connector-curvature="0" /></g><g
           id="g4351"
           transform="translate(329.4097,68.1711)"
           style="stroke:#b1b1b1;stroke-opacity:1;stroke-width:1.6;stroke-miterlimit:4;stroke-dasharray:none"><path
             d="m 0,0 c -2.045,-7.305 -9.624,-11.569 -16.928,-9.524 -7.305,2.044 -11.57,9.623 -9.525,16.928 2.045,7.305 9.624,11.569 16.929,9.524 C -2.22,14.884 2.045,7.305 0,0 Z"
             style="fill:none;stroke:#b1b1b1;stroke-width:1.6;stroke-linecap:butt;stroke-linejoin:miter;stroke-miterlimit:4;stroke-dasharray:none;stroke-opacity:1"
             id="path4353"
             inkscape:connector-curvature="0" /></g><g
           id="g4355"
           transform="translate(139.5211,155.9117)"
           style="stroke:#b1b1b1;stroke-opacity:1;stroke-width:1.6;stroke-miterlimit:4;stroke-dasharray:none"><path
             d="m 0,0 c -0.62,-5.938 -5.936,-10.248 -11.874,-9.628 -5.937,0.62 -10.248,5.936 -9.628,11.873 0.62,5.938 5.936,10.249 11.874,9.629 C -3.691,11.253 0.62,5.938 0,0"
             style="fill:#ffffff;fill-opacity:1;fill-rule:nonzero;stroke:#b1b1b1;stroke-opacity:1;stroke-width:1.6;stroke-miterlimit:4;stroke-dasharray:none"
             id="path4357"
             inkscape:connector-curvature="0" /></g><g
           id="g4359"
           transform="translate(139.5211,155.9117)"
           style="stroke:#b1b1b1;stroke-opacity:1;stroke-width:1.6;stroke-miterlimit:4;stroke-dasharray:none"><path
             d="m 0,0 c -0.62,-5.938 -5.936,-10.248 -11.874,-9.628 -5.937,0.62 -10.248,5.936 -9.628,11.873 0.62,5.938 5.936,10.249 11.874,9.629 C -3.691,11.253 0.62,5.938 0,0 Z"
             style="fill:none;stroke:#b1b1b1;stroke-width:1.6;stroke-linecap:butt;stroke-linejoin:miter;stroke-miterlimit:4;stroke-dasharray:none;stroke-opacity:1"
             id="path4361"
             inkscape:connector-curvature="0" /></g><g
           id="g4363"
           transform="translate(157.3605,144.6071)"
           style="stroke:#b1b1b1;stroke-opacity:1;stroke-width:1.6;stroke-miterlimit:4;stroke-dasharray:none"><path
             d="m 0,0 c -0.639,-6.116 -6.115,-10.556 -12.231,-9.918 -6.116,0.639 -10.556,6.115 -9.917,12.231 0.638,6.116 6.114,10.556 12.23,9.918 C -3.802,11.592 0.639,6.116 0,0"
             style="fill:#ffffff;fill-opacity:1;fill-rule:nonzero;stroke:#b1b1b1;stroke-opacity:1;stroke-width:1.6;stroke-miterlimit:4;stroke-dasharray:none"
             id="path4365"
             inkscape:connector-curvature="0" /></g><g
           id="g4367"
           transform="translate(157.3605,144.6071)"
           style="stroke:#b1b1b1;stroke-opacity:1;stroke-width:1.6;stroke-miterlimit:4;stroke-dasharray:none"><path
             d="m 0,0 c -0.639,-6.116 -6.115,-10.556 -12.231,-9.918 -6.116,0.639 -10.556,6.115 -9.917,12.231 0.638,6.116 6.114,10.556 12.23,9.918 C -3.802,11.592 0.639,6.116 0,0 Z"
             style="fill:none;stroke:#b1b1b1;stroke-width:1.6;stroke-linecap:butt;stroke-linejoin:miter;stroke-miterlimit:4;stroke-dasharray:none;stroke-opacity:1"
             id="path4369"
             inkscape:connector-curvature="0" /></g><g
           id="g4371"
           transform="translate(175.1999,133.3025)"
           style="stroke:#b1b1b1;stroke-opacity:1;stroke-width:1.6;stroke-miterlimit:4;stroke-dasharray:none"><path
             d="m 0,0 c -0.657,-6.295 -6.293,-10.865 -12.588,-10.207 -6.294,0.657 -10.864,6.293 -10.207,12.587 0.657,6.295 6.293,10.865 12.588,10.208 C -3.913,11.93 0.657,6.295 0,0"
             style="fill:#ffffff;fill-opacity:1;fill-rule:nonzero;stroke:#b1b1b1;stroke-opacity:1;stroke-width:1.6;stroke-miterlimit:4;stroke-dasharray:none"
             id="path4373"
             inkscape:connector-curvature="0" /></g><g
           id="g4375"
           transform="translate(175.1999,133.3025)"
           style="stroke:#b1b1b1;stroke-opacity:1;stroke-width:1.6;stroke-miterlimit:4;stroke-dasharray:none"><path
             d="m 0,0 c -0.657,-6.295 -6.293,-10.865 -12.588,-10.207 -6.294,0.657 -10.864,6.293 -10.207,12.587 0.657,6.295 6.293,10.865 12.588,10.208 C -3.913,11.93 0.657,6.295 0,0 Z"
             style="fill:none;stroke:#b1b1b1;stroke-width:1.6;stroke-linecap:butt;stroke-linejoin:miter;stroke-miterlimit:4;stroke-dasharray:none;stroke-opacity:1"
             id="path4377"
             inkscape:connector-curvature="0" /></g><g
           id="g4379"
           transform="translate(193.0393,121.9978)"
           style="stroke:#b1b1b1;stroke-opacity:1;stroke-width:1.6;stroke-miterlimit:4;stroke-dasharray:none"><path
             d="m 0,0 c -0.676,-6.473 -6.472,-11.173 -12.945,-10.497 -6.473,0.676 -11.172,6.472 -10.496,12.945 0.676,6.473 6.471,11.173 12.944,10.497 C -4.024,12.269 0.676,6.473 0,0"
             style="fill:#ffffff;fill-opacity:1;fill-rule:nonzero;stroke:#b1b1b1;stroke-opacity:1;stroke-width:1.6;stroke-miterlimit:4;stroke-dasharray:none"
             id="path4381"
             inkscape:connector-curvature="0" /></g><g
           id="g4383"
           transform="translate(193.0393,121.9978)"
           style="stroke:#b1b1b1;stroke-opacity:1;stroke-width:1.6;stroke-miterlimit:4;stroke-dasharray:none"><path
             d="m 0,0 c -0.676,-6.473 -6.472,-11.173 -12.945,-10.497 -6.473,0.676 -11.172,6.472 -10.496,12.945 0.676,6.473 6.471,11.173 12.944,10.497 C -4.024,12.269 0.676,6.473 0,0 Z"
             style="fill:none;stroke:#b1b1b1;stroke-width:1.6;stroke-linecap:butt;stroke-linejoin:miter;stroke-miterlimit:4;stroke-dasharray:none;stroke-opacity:1"
             id="path4385"
             inkscape:connector-curvature="0" /></g><g
           id="g4387"
           transform="translate(210.8787,110.6932)"
           style="stroke:#b1b1b1;stroke-opacity:1;stroke-width:1.6;stroke-miterlimit:4;stroke-dasharray:none"><path
             d="m 0,0 c -0.695,-6.652 -6.65,-11.481 -13.302,-10.786 -6.651,0.694 -11.481,6.65 -10.786,13.301 0.695,6.652 6.65,11.481 13.302,10.787 C -4.135,12.607 0.695,6.652 0,0"
             style="fill:#ffffff;fill-opacity:1;fill-rule:nonzero;stroke:#b1b1b1;stroke-opacity:1;stroke-width:1.6;stroke-miterlimit:4;stroke-dasharray:none"
             id="path4389"
             inkscape:connector-curvature="0" /></g><g
           id="g4391"
           transform="translate(210.8787,110.6932)"
           style="stroke:#b1b1b1;stroke-opacity:1;stroke-width:1.6;stroke-miterlimit:4;stroke-dasharray:none"><path
             d="m 0,0 c -0.695,-6.652 -6.65,-11.481 -13.302,-10.786 -6.651,0.694 -11.481,6.65 -10.786,13.301 0.695,6.652 6.65,11.481 13.302,10.787 C -4.135,12.607 0.695,6.652 0,0 Z"
             style="fill:none;stroke:#b1b1b1;stroke-width:1.6;stroke-linecap:butt;stroke-linejoin:miter;stroke-miterlimit:4;stroke-dasharray:none;stroke-opacity:1"
             id="path4393"
             inkscape:connector-curvature="0" /></g><g
           id="g4395"
           transform="translate(229.177,103.0944)"
           style="stroke:#b1b1b1;stroke-opacity:1;stroke-width:1.6;stroke-miterlimit:4;stroke-dasharray:none"><path
             d="m 0,0 c 0.803,-6.82 -4.075,-13 -10.895,-13.804 -6.82,-0.803 -13,4.075 -13.803,10.895 -0.804,6.82 4.074,13.001 10.894,13.804 C -6.983,11.698 -0.803,6.82 0,0"
             style="fill:#ffffff;fill-opacity:1;fill-rule:nonzero;stroke:#b1b1b1;stroke-opacity:1;stroke-width:1.6;stroke-miterlimit:4;stroke-dasharray:none"
             id="path4397"
             inkscape:connector-curvature="0" /></g><g
           id="g4399"
           transform="translate(229.177,103.0944)"
           style="stroke:#b1b1b1;stroke-opacity:1;stroke-width:1.6;stroke-miterlimit:4;stroke-dasharray:none"><path
             d="m 0,0 c 0.803,-6.82 -4.075,-13 -10.895,-13.804 -6.82,-0.803 -13,4.075 -13.803,10.895 -0.804,6.82 4.074,13.001 10.894,13.804 C -6.983,11.698 -0.803,6.82 0,0 Z"
             style="fill:none;stroke:#b1b1b1;stroke-width:1.6;stroke-linecap:butt;stroke-linejoin:miter;stroke-miterlimit:4;stroke-dasharray:none;stroke-opacity:1"
             id="path4401"
             inkscape:connector-curvature="0" /></g><g
           id="g4403"
           transform="translate(249.0625,95.9808)"
           style="stroke:#b1b1b1;stroke-opacity:1;stroke-width:1.6;stroke-miterlimit:4;stroke-dasharray:none"><path
             d="m 0,0 c 0.824,-6.999 -4.181,-13.34 -11.18,-14.164 -6.998,-0.825 -13.34,4.181 -14.164,11.179 -0.824,6.999 4.181,13.34 11.18,14.165 C -7.166,12.004 -0.824,6.999 0,0"
             style="fill:#ffffff;fill-opacity:1;fill-rule:nonzero;stroke:#b1b1b1;stroke-opacity:1;stroke-width:1.6;stroke-miterlimit:4;stroke-dasharray:none"
             id="path4405"
             inkscape:connector-curvature="0" /></g><g
           id="g4407"
           transform="translate(249.0625,95.9808)"
           style="stroke:#b1b1b1;stroke-opacity:1;stroke-width:1.6;stroke-miterlimit:4;stroke-dasharray:none"><path
             d="m 0,0 c 0.824,-6.999 -4.181,-13.34 -11.18,-14.164 -6.998,-0.825 -13.34,4.181 -14.164,11.179 -0.824,6.999 4.181,13.34 11.18,14.165 C -7.166,12.004 -0.824,6.999 0,0 Z"
             style="fill:none;stroke:#b1b1b1;stroke-width:1.6;stroke-linecap:butt;stroke-linejoin:miter;stroke-miterlimit:4;stroke-dasharray:none;stroke-opacity:1"
             id="path4409"
             inkscape:connector-curvature="0" /></g><g
           id="g4411"
           transform="translate(268.9481,88.8672)"
           style="stroke:#b1b1b1;stroke-opacity:1;stroke-width:1.6;stroke-miterlimit:4;stroke-dasharray:none"><path
             d="m 0,0 c 0.845,-7.177 -4.288,-13.68 -11.464,-14.525 -7.177,-0.846 -13.681,4.287 -14.526,11.464 -0.845,7.177 4.288,13.68 11.465,14.525 C -7.348,12.31 -0.845,7.177 0,0"
             style="fill:#ffffff;fill-opacity:1;fill-rule:nonzero;stroke:#b1b1b1;stroke-opacity:1;stroke-width:1.6;stroke-miterlimit:4;stroke-dasharray:none"
             id="path4413"
             inkscape:connector-curvature="0" /></g><g
           id="g4415"
           transform="translate(268.9481,88.8672)"
           style="stroke:#b1b1b1;stroke-opacity:1;stroke-width:1.6;stroke-miterlimit:4;stroke-dasharray:none"><path
             d="m 0,0 c 0.845,-7.177 -4.288,-13.68 -11.464,-14.525 -7.177,-0.846 -13.681,4.287 -14.526,11.464 -0.845,7.177 4.288,13.68 11.465,14.525 C -7.348,12.31 -0.845,7.177 0,0 Z"
             style="fill:none;stroke:#b1b1b1;stroke-width:1.6;stroke-linecap:butt;stroke-linejoin:miter;stroke-miterlimit:4;stroke-dasharray:none;stroke-opacity:1"
             id="path4417"
             inkscape:connector-curvature="0" /></g><g
           id="g4419"
           transform="translate(288.8337,81.7537)"
           style="stroke:#b1b1b1;stroke-opacity:1;stroke-width:1.6;stroke-miterlimit:4;stroke-dasharray:none"><path
             d="m 0,0 c 0.866,-7.355 -4.394,-14.02 -11.749,-14.886 -7.355,-0.866 -14.02,4.394 -14.886,11.749 -0.867,7.355 4.394,14.02 11.749,14.886 C -7.531,12.615 -0.866,7.355 0,0"
             style="fill:#ffffff;fill-opacity:1;fill-rule:nonzero;stroke:#b1b1b1;stroke-opacity:1;stroke-width:1.6;stroke-miterlimit:4;stroke-dasharray:none"
             id="path4421"
             inkscape:connector-curvature="0" /></g><g
           id="g4423"
           transform="translate(288.8337,81.7537)"
           style="stroke:#b1b1b1;stroke-opacity:1;stroke-width:1.6;stroke-miterlimit:4;stroke-dasharray:none"><path
             d="m 0,0 c 0.866,-7.355 -4.394,-14.02 -11.749,-14.886 -7.355,-0.866 -14.02,4.394 -14.886,11.749 -0.867,7.355 4.394,14.02 11.749,14.886 C -7.531,12.615 -0.866,7.355 0,0 Z"
             style="fill:none;stroke:#b1b1b1;stroke-width:1.6;stroke-linecap:butt;stroke-linejoin:miter;stroke-miterlimit:4;stroke-dasharray:none;stroke-opacity:1"
             id="path4425"
             inkscape:connector-curvature="0" /></g><g
           id="g4427"
           transform="translate(308.7193,74.6401)"
           style="stroke:#b1b1b1;stroke-opacity:1;stroke-width:1.6;stroke-miterlimit:4;stroke-dasharray:none"><path
             d="m 0,0 c 0.887,-7.533 -4.501,-14.36 -12.034,-15.247 -7.533,-0.887 -14.36,4.501 -15.247,12.034 -0.887,7.533 4.501,14.36 12.034,15.247 C -7.714,12.921 -0.887,7.533 0,0"
             style="fill:#ffffff;fill-opacity:1;fill-rule:nonzero;stroke:#b1b1b1;stroke-opacity:1;stroke-width:1.6;stroke-miterlimit:4;stroke-dasharray:none"
             id="path4429"
             inkscape:connector-curvature="0" /></g><g
           id="g4431"
           transform="translate(308.7193,74.6401)"
           style="stroke:#b1b1b1;stroke-opacity:1;stroke-width:1.6;stroke-miterlimit:4;stroke-dasharray:none"><path
             d="m 0,0 c 0.887,-7.533 -4.501,-14.36 -12.034,-15.247 -7.533,-0.887 -14.36,4.501 -15.247,12.034 -0.887,7.533 4.501,14.36 12.034,15.247 C -7.714,12.921 -0.887,7.533 0,0 Z"
             style="fill:none;stroke:#b1b1b1;stroke-width:1.6;stroke-linecap:butt;stroke-linejoin:miter;stroke-miterlimit:4;stroke-dasharray:none;stroke-opacity:1"
             id="path4433"
             inkscape:connector-curvature="0" /></g><g
           id="g4435"
           transform="translate(63.1119,110.314)"
           style="stroke:#b1b1b1;stroke-opacity:1;stroke-width:1.6;stroke-miterlimit:4;stroke-dasharray:none"><path
             d="M 0,0 C -19.635,-12.627 -38.171,-3.065 -13.345,12.028"
             style="fill:none;stroke:#b1b1b1;stroke-width:1.6;stroke-linecap:butt;stroke-linejoin:miter;stroke-miterlimit:4;stroke-dasharray:none;stroke-opacity:1"
             id="path4437"
             inkscape:connector-curvature="0" /></g><g
           id="g4439"
           transform="translate(75.7579,93.6282)"
           style="stroke:#b1b1b1;stroke-opacity:1;stroke-width:1.6;stroke-miterlimit:4;stroke-dasharray:none"><path
             d="M 0,0 C -19.635,-15.907 -37.472,-2.327 -12.646,16.686"
             style="fill:none;stroke:#b1b1b1;stroke-width:1.6;stroke-linecap:butt;stroke-linejoin:miter;stroke-miterlimit:4;stroke-dasharray:none;stroke-opacity:1"
             id="path4441"
             inkscape:connector-curvature="0" /></g><g
           id="g4443"
           transform="translate(85.2469,69.441)"
           style="stroke:#b1b1b1;stroke-opacity:1;stroke-width:1.6;stroke-miterlimit:4;stroke-dasharray:none"><path
             d="M 0,0 C -22.135,-11.31 -35.915,3.77 -9.489,24.187"
             style="fill:none;stroke:#b1b1b1;stroke-width:1.6;stroke-linecap:butt;stroke-linejoin:miter;stroke-miterlimit:4;stroke-dasharray:none;stroke-opacity:1"
             id="path4445"
             inkscape:connector-curvature="0" /></g><g
           id="g4447"
           transform="translate(377.5614,257.8494)"
           style="stroke:#b1b1b1;stroke-opacity:1;stroke-width:1.6;stroke-miterlimit:4;stroke-dasharray:none;fill:#b1b1b1;fill-opacity:1"><path
             d="m 0,0 c -22.931,-13.604 -33.224,-17.215 -49.371,-16.001 -16.146,1.214 -30.28,6.375 -41.113,11.269 -8.131,3.674 -7.377,7.861 -11.561,7.689 -5.588,-0.228 -3.998,-7.144 0,-9.487 3.997,-2.342 24.877,-10.457 36.074,-11.517 11.197,-1.059 29.818,-1.718 36.476,0.927 C -22.838,-14.475 0,0 0,0"
             style="fill:#b1b1b1;fill-opacity:1;fill-rule:nonzero;stroke:#b1b1b1;stroke-opacity:1;stroke-width:1.6;stroke-miterlimit:4;stroke-dasharray:none"
             id="path4449"
             inkscape:connector-curvature="0" /></g><g
           id="g4451"
           transform="translate(107.4545,583.6818)"
           style="stroke:#b1b1b1;stroke-opacity:1;stroke-width:1.6;stroke-miterlimit:4;stroke-dasharray:none"><path
             d="M 0,0 C 5.682,-14.773 14.222,-19.318 21.316,-20.455"
             style="fill:none;stroke:#b1b1b1;stroke-width:1.6;stroke-linecap:butt;stroke-linejoin:miter;stroke-miterlimit:4;stroke-dasharray:none;stroke-opacity:1"
             id="path4453"
             inkscape:connector-curvature="0" /></g><g
           id="g4455"
           transform="translate(130.1783,620.0455)"
           style="stroke:#b1b1b1;stroke-opacity:1;stroke-width:1.6;stroke-miterlimit:4;stroke-dasharray:none"><path
             d="M 0,0 C 4.549,-19.318 14.71,-23.864 27.243,-29.545"
             style="fill:none;stroke:#b1b1b1;stroke-width:1.6;stroke-linecap:butt;stroke-linejoin:miter;stroke-miterlimit:4;stroke-dasharray:none;stroke-opacity:1"
             id="path4457"
             inkscape:connector-curvature="0" /></g><g
           id="g4459"
           transform="translate(287.0779,656.4091)"
           style="stroke:#b1b1b1;stroke-opacity:1;stroke-width:1.6;stroke-miterlimit:4;stroke-dasharray:none"><path
             d="M 0,0 C 4.468,-14.773 5.76,-26.136 0,-31.818"
             style="fill:none;stroke:#b1b1b1;stroke-width:1.6;stroke-linecap:butt;stroke-linejoin:miter;stroke-miterlimit:4;stroke-dasharray:none;stroke-opacity:1"
             id="path4461"
             inkscape:connector-curvature="0" /></g><g
           id="g4463"
           transform="translate(229.7036,673.4545)"
           style="stroke:#b1b1b1;stroke-opacity:1;stroke-width:1.6;stroke-miterlimit:4;stroke-dasharray:none"><path
             d="M 0,0 C 9.569,-22.727 17.306,-38.636 12.87,-48.864"
             style="fill:none;stroke:#b1b1b1;stroke-width:1.6;stroke-linecap:butt;stroke-linejoin:miter;stroke-miterlimit:4;stroke-dasharray:none;stroke-opacity:1"
             id="path4465"
             inkscape:connector-curvature="0" /></g><g
           id="g4467"
           transform="translate(171.097,664.3636)"
           style="stroke:#b1b1b1;stroke-opacity:1;stroke-width:1.6;stroke-miterlimit:4;stroke-dasharray:none"><path
             d="M 0,0 C 7.948,-29.545 14.475,-42.902 22.007,-49.292"
             style="fill:none;stroke:#b1b1b1;stroke-width:1.6;stroke-linecap:butt;stroke-linejoin:miter;stroke-miterlimit:4;stroke-dasharray:none;stroke-opacity:1"
             id="path4469"
             inkscape:connector-curvature="0" /></g></g></g></g></svg>