<svg xmlns="http://www.w3.org/2000/svg" viewBox="0 0 546.67 643.11"><defs><style>.cls-1{fill:#f7eded;}.cls-2{fill:#d4cdcd;}.cls-3{fill:#a89e9e;}.cls-4{fill:#aba7a7;}.cls-5{fill:#d1c8c9;}.cls-6{fill:#d8c5c4;}.cls-7{fill:#fff;}.cls-12,.cls-7{stroke:#231f20;stroke-width:0.25px;}.cls-12,.cls-14,.cls-7{stroke-miterlimit:10;}.cls-8{fill:none;}.cls-9{fill:#811517;}.cls-10{fill:#037a87;}.cls-11{fill:#610c0d;}.cls-12{fill:#d3d3d3;}.cls-13{fill:#6b0d0e;}.cls-14{fill:#d6ecf2;stroke:#000;stroke-width:2px;}.cls-15{fill:#72767b;}.cls-16{fill:#686b6d;}.cls-17{fill:#a11d21;}.cls-18{fill:#8b8d8f;}.cls-19{fill:#838789;}</style></defs><title>Asset 1</title><g id="Layer_2" data-name="Layer 2"><g id="Layer_1-2" data-name="Layer 1"><path class="cls-1" d="M.06,583.45C63.87,556,101.81,544.17,110.69,519.22s19.28-67,17.4-78.14-12.54-66.54-21.28-73.7-28.11-19.85-35-50.82C66,290.45,55,232,82.38,188.34s100.17-97.44,189.35-87.26,123.5,65.7,129.91,92.62,6.69,68.57,7.51,85.24-13.95,34.47-11.36,49.35c2.17,12.45,10.5,34.06,11.39,48.75s6.72,43.68-27.06,76.56-16.47,17.11-16.47,17.11,2.8,38.94,19.33,56.37c27.61,29.12,37.43,44.46,103.31,51s58.08,5.35,58.08,5.35V643H.06Z"/><path class="cls-2" d="M365.66,470.71c-4.79,4.53-38.24,41.47-82.26,39.77-25.86-1-56.39-4.58-73.61-26.82C184,491.12,162.27,468,160.33,468.85c0,0,24.45,27.64,49.76,23.84,2.11,1.23,22.73,12.61,28.39,14.69,31.84,11.68,92.83,26.06,97.32,50.76,5.92,11.69,8.18,24.71,10.4,34.6,1.24,5.52,1.21,11,4.68,13.38,7,4.76,20.67,2.94,34.68,6.3,2.13-2.27,10.76-14.08,16.09-21.33,49.76-1.81,144.52.47,144.73-7.64-85.79-6.7-126.9-13.79-160.72-55.66C370.06,508.46,367.92,485.07,365.66,470.71Z"/><path class="cls-2" d="M397.49,435.21c-8.45,11.1-31.83,35.5-31.83,35.5s15-19.21,21.75-28.41C398,427.78,406.26,413,409.16,395,409.22,405.35,405.94,424.1,397.49,435.21Z"/><path class="cls-3" d="M376.31,610.56l3.76.55,5.48,1.32s16.51-21.7,20.7-27.77,9.88-10.2,10.86-16.44-4.23-8-4.23-8-18.4,30.71-23.61,33.67-19.15,14.89-13,16.65"/><path class="cls-4" d="M365.66,470.71c-4.79,4.53-38.24,41.47-82.26,39.77-25.86-1-56.39-4.58-73.61-26.82C184,491.12,162.27,468,160.33,468.85c0,0,24.45,27.64,49.76,23.84,2.11,1.23,22.68,12.73,28.39,14.69,15.34,5.25,42,16.45,63.89,16.07s47.45-20.67,53-25.31C363.89,491,364.75,479.17,365.66,470.71Z"/><path class="cls-4" d="M326.28,324.13c6.32,12.47,6.32,12.47,16.34,16s54.87,0,54.87,0l3.46-.77-2-11.08Z"/><path class="cls-4" d="M266,324.13c-8.08,11.57-9.23,14.83-22.52,15.27-15.56.51-34.15.74-41.07.74-7.6,0-20.22,0-28.29-2.19-5.64-1.53-8-9.36-8-9.36Z"/><path class="cls-5" d="M325.15,311.56c10.64-11.68,28.2-11.48,41.51-11.58,12.23-.09,27.86,3,31.83,7.92s-1,16.23-5.84,19.43C376.26,338.15,334.44,343.72,325.15,311.56Z"/><path class="cls-5" d="M266.34,313.56c-8.44-17.58-32-14.21-50-13.58-26.13.92-45.65,4.28-49.2,9.92-3.87,6.15,2.91,18.39,7.91,19.43C200.72,334.7,256.15,340.14,266.34,313.56Z"/><path class="cls-6" d="M0,583.31l11.35-5,30-12.9c6.2-2.68,12.91-5.6,19.93-8.84s14.37-6.77,21.65-11a109.52,109.52,0,0,0,10.69-7,57.46,57.46,0,0,0,9.52-8.74,34.86,34.86,0,0,0,6.5-11.15c1.44-4.27,2.8-8.51,4-12.83,2.45-8.64,4.58-17.37,6.45-26s3.53-17.19,4.86-25.49c.65-4.14,1.28-8.25,1.53-12.17a34.66,34.66,0,0,0-.15-5.81c-.17-1.94-.4-3.87-.66-5.77-1.07-7.6-2.55-14.76-4.06-21.31s-3-12.55-4.58-17.8-3.06-9.77-4.47-13.43a49.45,49.45,0,0,0-3.9-8.19,13.19,13.19,0,0,0-1.41-1.9,5.64,5.64,0,0,0-.42-.43l-.15-.14.19-.23.16.14a6,6,0,0,1,.47.42,13.62,13.62,0,0,1,1.59,1.86,47.14,47.14,0,0,1,4.43,8.08,137,137,0,0,1,5.13,13.33c1.74,5.23,3.58,11.17,5.26,17.75s3.32,13.74,4.59,21.45a58.27,58.27,0,0,1,1,12.14c-.24,4.19-.85,8.31-1.48,12.52-1.41,8.38-3.15,17-5.18,25.62S118.57,498,116,506.63c-1.27,4.34-2.72,8.66-4.2,12.88a37,37,0,0,1-7,11.77,59.42,59.42,0,0,1-10,8.93,111.31,111.31,0,0,1-11,6.93C76.39,551.3,69,554.76,61.88,557.9S48,563.84,41.77,566.42l-30.22,12.4L.12,583.59Z"/><path class="cls-6" d="M382.13,453.6l-12.46,12.57c-2.07,2.1-4.14,4.21-6.16,6.34-.5.53-1,1.07-1.49,1.62-.12.13-.24.27-.34.4l-.06.08s0,0,0,0,.08-.2,0-.32a.43.43,0,0,0-.27-.22.39.39,0,0,0-.18,0h0c-.1,0,.05,0,.09-.08.27-.21.55-.45.83-.69,1.1-1,2.19-2,3.26-3l.74-.69.1,1c.46,4.92,1.21,9.84,2.15,14.7a144,144,0,0,0,3.54,14.42,96.28,96.28,0,0,0,5.29,13.8,58.45,58.45,0,0,0,3.55,6.44,40.1,40.1,0,0,0,4.4,5.82l10.22,10.85c3.44,3.58,6.87,7.17,10.5,10.52l2.72,2.51,2.84,2.37c1.85,1.64,3.91,3,5.86,4.49,1,.74,2.06,1.35,3.08,2s2,1.37,3.13,1.94l3.24,1.75,1.62.87,1.68.76c2.25,1,4.47,2.07,6.81,2.86l3.47,1.28c1.15.44,2.36.73,3.53,1.11,2.37.7,4.72,1.47,7.14,2l3.61.87c1.2.29,2.4.6,3.62.8l7.3,1.39c2.44.42,4.9.75,7.35,1.15l3.68.57,3.7.46,7.39.9,29.67,3.2,14.84,1.6,7.42.77,3.71.38,1.86.17.93.07.47,0h.12c.06,0,0,0,0,0l-.23,0,.23,0,.06,0s0,0,0,0H546l-.93,0-1.86-.1-3.72-.24-7.44-.56-14.88-1.21-14.87-1.3-14.86-1.36-7.43-.79-3.72-.4-3.71-.52c-2.47-.35-4.94-.67-7.4-1.08l-7.37-1.36c-1.23-.2-2.45-.51-3.66-.79l-3.65-.86c-2.45-.51-4.84-1.28-7.24-2-1.2-.37-2.42-.66-3.59-1.1l-3.54-1.28c-2.38-.79-4.66-1.86-7-2.88l-1.72-.76-1.67-.88-3.33-1.78c-1.12-.58-2.14-1.32-3.22-2s-2.15-1.31-3.16-2.06c-2-1.51-4.1-2.92-6-4.6l-2.88-2.43-2.75-2.56c-3.66-3.42-7.1-7-10.53-10.66L383.78,527a41.84,41.84,0,0,1-4.55-6.09,60.15,60.15,0,0,1-3.61-6.64,94.13,94.13,0,0,1-5.18-14.11,145.4,145.4,0,0,1-3.34-14.61c-.86-4.92-1.54-9.86-1.93-14.85l.84.33c-1.11,1-2.22,2-3.36,2.9-.29.24-.57.47-.89.7a1.36,1.36,0,0,1-.38.21h0a.47.47,0,0,1-.2,0,.44.44,0,0,1-.29-.23.51.51,0,0,1,0-.39l.07-.13.1-.14c.13-.16.26-.3.38-.44.51-.55,1-1.07,1.55-1.6,2.09-2.09,4.21-4.14,6.34-6.19Q375.66,459.64,382.13,453.6Z"/><path class="cls-6" d="M149.19,457.05s.84.72,2.24,2c.69.67,1.57,1.43,2.54,2.32s2.1,1.87,3.31,2.94c.6.54,1.25,1.08,1.93,1.63s1.34,1.16,2.07,1.72l2.23,1.74,2.38,1.73c.81.58,1.66,1.12,2.5,1.71s1.75,1.08,2.62,1.64,1.82,1,2.72,1.54,1.87.95,2.81,1.4a57.14,57.14,0,0,0,5.8,2.31c1,.33,2,.64,2.93.89s1.95.49,2.91.72c1.93.42,3.8.74,5.68,1s3.55.52,5.16.71,3.08.34,4.39.46,2.46.17,3.41.19,1.69,0,2.2,0a7.74,7.74,0,0,0,.78-.08,5.26,5.26,0,0,1-.73.31,17.68,17.68,0,0,1-2.17.6,34.7,34.7,0,0,1-3.46.55c-1.34.14-2.87.28-4.52.3s-3.46.05-5.36,0a55.72,55.72,0,0,1-6-.5c-1-.15-2.11-.32-3.17-.58l-1.61-.36-1.6-.47a47.8,47.8,0,0,1-6.32-2.39c-1-.5-2-1-3-1.55s-1.94-1.13-2.87-1.73a58.08,58.08,0,0,1-5.23-3.83c-.79-.69-1.59-1.34-2.33-2l-2.11-2c-1.34-1.36-2.58-2.67-3.63-3.95l-1.52-1.82c-.47-.59-.89-1.18-1.3-1.71-.82-1.07-1.49-2-2-2.83C149.76,458,149.19,457.05,149.19,457.05Z"/><path class="cls-6" d="M397.83,327.06l1.09,3.86c.71,2.52,1.77,6.21,3,10.94s2.72,10.49,4.1,17.17a193.29,193.29,0,0,1,3.39,22.67,116.65,116.65,0,0,1-.61,27.18c-1.44,9.56-4.65,19.62-10.77,28.43A58.3,58.3,0,0,1,393,443.6l-5.42,5.93c-3.64,4-7.33,8-11.1,12A328.55,328.55,0,0,1,352.57,485c-8.5,7.35-17.65,14.17-27.73,19.14a83.24,83.24,0,0,1-15.62,5.93,71.88,71.88,0,0,1-16.2,2.3,198.6,198.6,0,0,1-30.45-.95,96.7,96.7,0,0,1-26.57-7,67,67,0,0,1-10.78-5.84,73.42,73.42,0,0,1-8.73-6.74,78.94,78.94,0,0,1-11.81-13.32c-1.46-2-2.6-3.87-3.64-5.47s-1.81-3-2.43-4.19l-1.88-3.56.35-.19,2.14,3.39c.71,1.09,1.63,2.42,2.68,4s2.37,3.3,3.92,5.17l1.17,1.45,1.29,1.48c.45.5.88,1,1.36,1.54l1.48,1.55a76.16,76.16,0,0,0,6.88,6.41,74.37,74.37,0,0,0,19.23,11.38,93.16,93.16,0,0,0,25.77,6c4.71.45,9.57.76,14.56.84s10.09,0,15.32-.16a73,73,0,0,0,30.32-7.42c9.76-4.61,18.83-11.08,27.3-18.2a325.75,325.75,0,0,0,24-22.89c3.81-3.95,7.55-7.92,11.24-11.84l5.5-5.85a55.87,55.87,0,0,0,4.94-6c6-8.38,9.24-18.09,10.82-27.42a115.1,115.1,0,0,0,1.05-26.79,192.15,192.15,0,0,0-3-22.59c-1.26-6.68-2.63-12.45-3.8-17.19s-2.18-8.45-2.84-11l-1-3.88Z"/><path class="cls-6" d="M401.64,193.69l.38,1.49c.23,1,.64,2.39,1,4.22s.9,4.06,1.33,6.63l.73,4.1.68,4.56c.44,3.18.91,6.64,1.27,10.3s.76,7.53,1.05,11.53.6,8.14.8,12.35.4,8.49.57,12.76l.42,12.75.12,3.13c0,.54,0,1,0,1.61l0,1.55c0,.52,0,1,0,1.55l-.18,1.59-.18,1.57-.3,1.51A68.48,68.48,0,0,1,406,298.08c-1.33,3.45-2.67,6.65-3.87,9.62-.57,1.49-1.15,2.91-1.62,4.29s-.93,2.67-1.3,3.91-.62,2.42-.91,3.51-.34,2.12-.5,3-.1,1.75-.15,2.48a11.66,11.66,0,0,0,.05,1.84l.1,1.53-.21-1.52a22.45,22.45,0,0,1-.19-4.36c.11-.93.18-2,.34-3.1s.38-2.34.73-3.6a81.53,81.53,0,0,1,2.57-8.41l3.54-9.73a73.63,73.63,0,0,0,3.06-11l.27-1.45.14-1.45.15-1.46c0-.5,0-1,0-1.54v-1.55c0-.42,0-1-.07-1.51l-.14-3.15-.49-12.75c-.15-4.27-.3-8.54-.5-12.74s-.38-8.33-.63-12.33-.48-7.86-.78-11.51q-.2-2.74-.45-5.32c-.16-1.72-.28-3.38-.47-5l-.49-4.57-.52-4.11c-.3-2.59-.72-4.81-1-6.67Z"/><path class="cls-7" d="M507.23,632.41c.21-9.28-25.72-7.51-25.72-7.51s-3.5,1.21-5.12,7a16.55,16.55,0,0,0,1,11H485C493.74,641.77,507.08,638.7,507.23,632.41Z"/><path class="cls-7" d="M485.92,607.1s24.58-1.41,24.28,7.38-28,10.55-28,10.55-2.76-5.92-1.17-11.37S485.92,607.1,485.92,607.1Z"/><path class="cls-7" d="M491.61,589.68s24.38,1.1,23.19,9.73S486.09,607,486.09,607s-2.12-6.11,0-11.33S491.61,589.68,491.61,589.68Z"/><path class="cls-7" d="M55,635.94c-12.14-.16-18,2-17.59,7H57.09C56.2,639.66,55,635.94,55,635.94Z"/><path class="cls-7" d="M48,613.37c-15.08,4-19.23,8.93-11.74,15.87s21.15,6.69,21.15,6.69-2.36-10.15-3.54-12.84A110.76,110.76,0,0,0,48,613.37Z"/><path class="cls-7" d="M17,575.69c-12.19,9.76-14,15.89-4.39,19.25s22.06-2.35,22.06-2.35-6.23-8.35-8.39-10.34A110.76,110.76,0,0,0,17,575.69Z"/><path class="cls-7" d="M34.41,592.66C20.32,599.4,17.14,605,25.76,610.41s22,2.72,22,2.72-4.17-9.55-5.82-12A110.76,110.76,0,0,0,34.41,592.66Z"/><path class="cls-8" d="M359.82,607.46c10.85,1.71,20.11,3.44,25.73,5,0,0,7.73-9.81,16.09-21.33-14.81.66-25.21,1.79-27.14,3.85C368.2,601.66,363.46,605.64,359.82,607.46Z"/><path class="cls-9" d="M385.55,612.42c-5.63-1.51-14.89-3.25-25.73-5-4.18,2.09-6.92,1.35-8.94-1.35-19.12-2.77-41.11-5.26-56.73-6.34-27.56-1.9-97.23,12.64-97.23,12.64S185.81,606.1,171.27,596s-66.82-35.14-89.35-50.26c-10.55,7-64.93,30-64.93,30,11.35,8,26,25.5,29.84,35.24s9.23,32.16,9.23,32.16H485s-1.68-19.57,0-30.21,3.35-13.79,6.32-23.26c-29.91.57-65.58.41-89.63,1.47C393.28,602.61,385.55,612.42,385.55,612.42Z"/><path class="cls-10" d="M359.82,607.46c-2.88-.45-5.87-.9-8.94-1.35C352.9,608.82,355.64,609.56,359.82,607.46Z"/><path class="cls-11" d="M468.93,574.35a249.29,249.29,0,0,1-26.08-6.86c-1.28-.45-12.79-4.78-18.66-7.68l-2.43-1.29c-2.3,6.69-11.54,20.77-20.12,32.57,24-1.07,54.8,2.17,89.63-1.47,1.49-4.76,3-9.72,3.81-11.5C485.55,576.81,477.6,576,468.93,574.35Z"/><path class="cls-11" d="M439.24,587.11c-7,6.7-42.54,43.91-103,56-18.83,0-39-.16-54.21,0-7.77.08-19.05-.05-19.05-.05l-8.86-6.55,27.92-4.35s76.94-9.55,83.69-23.7l10.57,2.13,9.24,1.86,19.1-24.48Z"/><path class="cls-7" d="M519.14,580.74c-6.46-.89-17.27-1.58-24.73-2.66l-.1.33c7.77,1,16,1.89,24.81,2.72C519.14,580.92,519.15,580.75,519.14,580.74Z"/><path class="cls-7" d="M504.2,589.32c-3.78.12-7.72.23-11.77.32A107.83,107.83,0,0,0,504.2,589.32Z"/><path class="cls-12" d="M519.09,581.91s0-.45,0-.79c-8.79-.83-17-1.72-24.81-2.72-.2.67-.37,1.35-.44,1.61-.37,1.5-2.6,9.58-2.6,9.58l1.16,0c4.05-.09,8-.2,11.77-.32C511.84,588.65,519.89,586.79,519.09,581.91Z"/><path class="cls-7" d="M485,643.08"/><circle class="cls-7" cx="95.99" cy="541.87" r="10.81" transform="translate(-452.92 581.06) rotate(-84.04)"/><circle class="cls-7" cx="113.51" cy="553.14" r="11.13" transform="translate(-448.43 608.58) rotate(-84.04)"/><circle class="cls-7" cx="131.02" cy="564.41" r="11.46" transform="translate(-443.94 636.1) rotate(-84.04)"/><circle class="cls-7" cx="148.54" cy="575.68" r="11.78" transform="translate(-439.46 663.63) rotate(-84.04)"/><circle class="cls-7" cx="166.06" cy="586.95" r="12.11" transform="translate(-434.97 691.15) rotate(-84.04)"/><circle class="cls-7" cx="184.05" cy="597.26" r="12.43" transform="translate(-68.6 25.63) rotate(-6.72)"/><circle class="cls-7" cx="203.61" cy="604.41" r="12.76" transform="translate(-69.3 27.96) rotate(-6.72)"/><circle class="cls-7" cx="223.17" cy="611.57" r="13.08" transform="translate(-70 30.3) rotate(-6.72)"/><circle class="cls-7" cx="242.74" cy="618.72" r="13.41" transform="translate(-70.7 32.64) rotate(-6.72)"/><circle class="cls-7" cx="262.3" cy="625.87" r="13.73" transform="translate(-71.4 34.98) rotate(-6.72)"/><circle class="cls-7" cx="417.07" cy="557.41" r="10.81" transform="translate(-133.82 131.77) rotate(-15.5)"/><circle class="cls-7" cx="404.36" cy="569.27" r="11.13" transform="translate(-137.45 128.8) rotate(-15.5)"/><circle class="cls-7" cx="391.65" cy="581.12" r="11.46" transform="translate(-141.09 125.84) rotate(-15.5)"/><circle class="cls-7" cx="380.89" cy="594.94" r="11.78" transform="translate(-145.17 123.46) rotate(-15.5)"/><circle class="cls-7" cx="366.23" cy="604.84" r="12.11" transform="translate(-148.35 119.9) rotate(-15.5)"/><circle class="cls-7" cx="351.45" cy="614.67" r="12.43" transform="matrix(0.27, -0.96, 0.96, 0.27, -335.2, 787.44)"/><circle class="cls-7" cx="334.44" cy="622.16" r="12.76" transform="translate(-354.84 776.53) rotate(-74.36)"/><circle class="cls-7" cx="317.43" cy="625.73" r="13.08" transform="matrix(0.27, -0.96, 0.96, 0.27, -370.71, 762.76)"/><circle class="cls-7" cx="302.37" cy="627.36" r="13.41" transform="translate(-383.27 749.44) rotate(-74.36)"/><circle class="cls-7" cx="283.4" cy="627.03" r="13.73" transform="translate(-396.81 730.94) rotate(-74.36)"/><path class="cls-9" d="M242.93,442l1.18.46c.77.3,1.88.81,3.29,1.38,2.78,1.17,6.76,2.86,11.49,4.64,2.37.88,4.94,1.78,7.67,2.6s5.62,1.6,8.63,2.31,6.14,1.38,9.38,1.92c1.62.28,3.27.46,4.93.65l2.51.19.63,0,.61,0,1.3.05c.88,0,1.72.05,2.54.05s1.67,0,2.51,0c1.69,0,3.36-.09,5-.18,3.33-.21,6.6-.53,9.75-1a102.59,102.59,0,0,0,17-4,88.89,88.89,0,0,0,11.48-4.74c1.35-.67,2.38-1.24,3.09-1.64l1.08-.62.38.59-1,.74c-.66.48-1.64,1.17-2.93,2a81.71,81.71,0,0,1-11.19,6c-2.41,1.07-5.06,2.13-7.93,3.12s-5.95,1.86-9.17,2.63A96.68,96.68,0,0,1,305.11,461c-1.73.22-3.48.42-5.24.55-.88.08-1.77.14-2.67.19s-1.79.1-2.65.13c-3.53.13-7.12.17-10.66,0a58.59,58.59,0,0,1-10.35-1.37,55,55,0,0,1-9.3-3c-1.45-.56-2.78-1.28-4.1-1.89s-2.53-1.33-3.67-2a66.1,66.1,0,0,1-6.07-4.05L248,447.62l-2-1.68c-1.18-1-2-1.87-2.61-2.45l-.89-.91Z"/><path class="cls-13" d="M242.76,443.25l1.06.66c.69.42,1.69,1.08,3,1.84s2.89,1.7,4.73,2.71,4,2.09,6.3,3.19c1.17.56,2.41,1.07,3.69,1.64s2.62,1.07,4,1.53a79.76,79.76,0,0,0,18.72,4.3,91.28,91.28,0,0,0,10.27.57,107.92,107.92,0,0,0,20.17-1.81,99.77,99.77,0,0,0,17-4.77,85,85,0,0,0,11.36-5.28c1.32-.74,2.33-1.37,3-1.8l1-.67.05.08-1,.69c-.68.44-1.69,1.08-3,1.85a85.23,85.23,0,0,1-11.31,5.46,97.32,97.32,0,0,1-17,5,108.71,108.71,0,0,1-20.28,2,92.07,92.07,0,0,1-10.37-.43,72.12,72.12,0,0,1-9.93-1.63,69,69,0,0,1-9-2.71c-1.41-.49-2.74-1.11-4-1.63s-2.52-1.14-3.69-1.72c-2.34-1.16-4.42-2.33-6.24-3.41l-2.53-1.54-2.1-1.38c-1.27-.83-2.23-1.54-2.9-2l-1-.71Z"/><path class="cls-6" d="M306,322.68l-.06,1.56a36.8,36.8,0,0,0,.22,4.36,37.53,37.53,0,0,0,1.38,6.57A41.46,41.46,0,0,0,311,343.1a35.2,35.2,0,0,0,6.09,8,16.51,16.51,0,0,0,4.23,3l1.32.57c.45.2.89.38,1.39.66a27.83,27.83,0,0,1,2.82,1.66,24.32,24.32,0,0,1,8.55,10.25,28.62,28.62,0,0,1,2.32,13.55,24.69,24.69,0,0,1-1.5,6.86,15.74,15.74,0,0,1-3.94,6.13,28.42,28.42,0,0,1-5.67,3.74,56,56,0,0,1-5.84,2.6,66.26,66.26,0,0,1-11.52,3.22,59.41,59.41,0,0,1-10.64,1.1,41.18,41.18,0,0,1-9-.8,25.22,25.22,0,0,1-6.59-2.27,16.78,16.78,0,0,1-3.67-2.54c-.37-.35-.65-.63-.82-.83l-.27-.29s.41.36,1.24.94a18.08,18.08,0,0,0,3.85,2,27,27,0,0,0,6.51,1.47,46.31,46.31,0,0,0,8.66,0,70.34,70.34,0,0,0,10.12-1.72,77.49,77.49,0,0,0,10.85-3.57,52.41,52.41,0,0,0,5.37-2.6,29.23,29.23,0,0,0,4.83-3.3,12,12,0,0,0,2.87-4.65,21.7,21.7,0,0,0,1.21-5.79,24.72,24.72,0,0,0-1.87-11.69,21.47,21.47,0,0,0-7-8.93,24.84,24.84,0,0,0-2.33-1.48,14.05,14.05,0,0,0-1.28-.66l-1.36-.67a19.56,19.56,0,0,1-4.88-3.85,34.13,34.13,0,0,1-6-9,36.37,36.37,0,0,1-3.54-15.52,29.57,29.57,0,0,1,.36-4.43Z"/><path d="M264.8,317.57l.54-.53c.37-.32.85-.85,1.57-1.41s1.6-1.3,2.65-2c.52-.38,1.1-.73,1.71-1.11s1.37-.42,2.09-.67c1.47-.41,3.08-.78,4.79-1.13s3.52-.65,5.4-.88,3.83-.43,5.82-.54c1-.06,2-.1,3-.12l3,0c3.88-.07,7.9-.14,11.66,0a57.17,57.17,0,0,1,10.43,1.3c.39.08.76.2,1.14.29a2.71,2.71,0,0,1,1.08.33,20.83,20.83,0,0,1,1.78,1.26,12.5,12.5,0,0,1,2.51,2.52,7.94,7.94,0,0,1,1.08,2c.16.48.22.73.22.73l-.63-.39a9.35,9.35,0,0,0-1.82-.76,14.85,14.85,0,0,0-2.88-.5,17.11,17.11,0,0,0-1.79-.06,2.46,2.46,0,0,1-.89-.26c-.31-.1-.62-.18-1-.25a52.36,52.36,0,0,0-9.49-1.17c-3.58-.17-7.42-.1-11.38,0l-2.91,0c-.95,0-1.89.06-2.82.11-1.87.1-3.7.28-5.47.51s-3.46.51-5.06.83-3.09.67-4.46,1.05c-.7.12-1.28.57-2,.51s-1.31,0-1.91.06l-3.15.14-2.1.14Z"/><path class="cls-14" d="M321.15,316.57l11.37-10s84.11.91,87.75,2.27,10.91,2.67,5.91,13.84-2.27,14.48-20.91,14.19-50.92,0-50.92,0-12.28,1.07-19.1-3.47S321.15,316.57,321.15,316.57Z"/><path d="M171.61,316.57l-.72.37c-.47.22-1.16.58-2,1-1.77.79-4.31,1.82-7.39,2.87s-6.7,2.11-10.6,3.06c-1,.25-2,.47-3,.69s-2,.45-3.06.64c-2.06.42-4.17.77-6.28,1.12s-4.23.63-6.32.85q-1.57.2-3.11.33c-1,.09-2,.2-3,.26-4,.29-7.78.38-11,.32s-6-.27-7.91-.49c-1-.1-1.73-.24-2.24-.3s-.8-.14-.8-.14.25-.14.72-.37,1.16-.59,2-1c1.77-.8,4.31-1.83,7.39-2.88s6.7-2.11,10.6-3.05c1-.25,2-.46,3-.69s2-.44,3.06-.64c2.06-.42,4.17-.76,6.28-1.12s4.23-.62,6.32-.84c1-.13,2.08-.23,3.11-.32s2-.19,3-.25c4-.29,7.78-.38,11-.32s6,.27,7.91.48c1,.1,1.73.23,2.24.3Z"/><path class="cls-14" d="M269.67,316.57l-11.37-10s-84.11.91-87.75,2.27-10.91,2.67-5.91,13.84,2.27,14.48,20.91,14.19,50.92,0,50.92,0,12.28,1.07,19.1-3.47S269.67,316.57,269.67,316.57Z"/><path class="cls-15" d="M125.19,139.66c-19.67-7.92-49.37-36.83-37.79-68.79S157.63-1,203.42.25s101.78,20.23,103.86,48.1-.3,46-11.87,51.48C280,107.08,222.49,137,196.26,139.66S125.19,139.66,125.19,139.66Z"/><path class="cls-16" d="M203.43,0l2,0,2.39,0,3.24.12c2.43.1,5.38.27,8.75.58s7.17.72,11.3,1.32,8.59,1.37,13.28,2.34S254,6.64,259,8.13a154.55,154.55,0,0,1,15.25,5.4,106.26,106.26,0,0,1,15,7.61A59.57,59.57,0,0,1,302.49,32a33.84,33.84,0,0,1,4.87,7.22,18.21,18.21,0,0,1,.87,2A13.13,13.13,0,0,1,309,43.3c.18.71.39,1.41.54,2.13l.31,2.17c.12.75.11,1.37.16,2l.12,1.92c.09,1.26.14,2.54.18,3.82.11,2.54.11,5,.1,7.43s-.11,4.77-.28,7c-.07,1.14-.17,2.26-.3,3.36s-.21,2.17-.39,3.23a50.31,50.31,0,0,1-2.82,11.34A25,25,0,0,1,302,95.6a10.41,10.41,0,0,1-1.28,1.27,9.86,9.86,0,0,1-1.21,1,17.3,17.3,0,0,1-2.1,1.32l-1.86.84a.25.25,0,0,1-.25-.43l0,0,1.6-1.13a5.17,5.17,0,0,0,.8-.69l.92-.86a8.82,8.82,0,0,0,.94-1.11,10.74,10.74,0,0,0,1-1.31l.95-1.56c.29-.57.55-1.2.85-1.82a16.7,16.7,0,0,0,.78-2L303.5,88l.29-1.17A55.33,55.33,0,0,0,305.41,76c.1-1,.09-2.05.14-3.11s.06-2.13.05-3.24c.05-2.19,0-4.48-.08-6.82s-.2-4.76-.37-7.21l-.24-3.75L304.78,50c-.06-.64-.06-1.32-.16-1.85a21.63,21.63,0,0,0-1.81-6.76A31.12,31.12,0,0,0,298.9,35a53.42,53.42,0,0,0-11.83-10.5,102.59,102.59,0,0,0-14.2-7.82,151.4,151.4,0,0,0-14.74-5.79c-4.88-1.65-9.68-3-14.27-4.18s-9-2.14-13-2.88S223,2.48,219.66,2s-6.26-.75-8.66-1L207.79.78,205.4.63l-2-.13a.25.25,0,0,1,0-.5Z"/><path class="cls-17" d="M119,136.67c17-13.45,43.84-29.9,64-36.52,23.5-7.7,49.36-13,68-12.67s42.24,5,48.37,8.53l-5.32,12c-6.13-3.51-21.38-5.21-40.05-5.55s-47.7,6.5-68,12.67-34.8,14-51.83,27.48Z"/><path class="cls-15" d="M114.56,321.77c13.73-13.18,17-36,13.87-50.28,27.88-5,63.32-18.06,120.85-48,75.89-39.46,35.42-94.1,22.45-122.44,0,0-13.35-21.25-88.22,5.06S79.29,192.21,71.79,210.93c-7.22,18-22.9,106.64,26.87,151.56"/><path class="cls-16" d="M104.45,322.68l.73.32a12.75,12.75,0,0,0,2,.66,7.18,7.18,0,0,0,3,.06,7.83,7.83,0,0,0,3.34-1.59c2.19-1.7,4.18-4.59,5.91-7.94.87-1.68,1.66-3.49,2.42-5.36s1.45-3.81,2.07-5.78,1.21-4,1.74-5.93,1-3.93,1.37-5.84a78.19,78.19,0,0,0,1.52-10.51,29.29,29.29,0,0,0-.31-7.49,14.15,14.15,0,0,0-.59-2.07l-.31-.72s.21.17.6.53a10.16,10.16,0,0,1,1.41,1.81,16.74,16.74,0,0,1,1.54,3.25,27,27,0,0,1,1.14,4.5,44.66,44.66,0,0,1,.27,11.48,55.72,55.72,0,0,1-1,6.38,62.33,62.33,0,0,1-1.7,6.45,57.9,57.9,0,0,1-2.45,6.24,43.32,43.32,0,0,1-3.19,5.74,29.45,29.45,0,0,1-4,4.87,17.11,17.11,0,0,1-4.78,3.37,11.71,11.71,0,0,1-2.58.81,8.93,8.93,0,0,1-2.44.08,8,8,0,0,1-3.56-1.27,9.56,9.56,0,0,1-1.77-1.48Z"/><path class="cls-15" d="M271.73,101.08c18-5.06,75.7-17.2,109.09,30.36S428.38,209.35,409.16,265c0,0-11.13-18.21-12.14-28.33-28.33,2-61.72-23.27-105.29-56.23"/><path class="cls-16" d="M409,265.1a153.19,153.19,0,0,1-7.59-13.56c-1.14-2.33-2.21-4.71-3.14-7.15a34.63,34.63,0,0,1-2.08-7.64l.73.75-3.76-.46-3.75-.58c-2.49-.45-5-1-7.42-1.56s-4.9-1.25-7.32-2-4.83-1.51-7.21-2.37c-1.2-.41-2.38-.86-3.56-1.31s-2.36-.9-3.53-1.39c-2.35-.94-4.66-2-7-3-4.61-2.09-9.12-4.37-13.57-6.77l-3.32-1.84-3.27-1.92c-2.16-1.31-4.32-2.63-6.42-4s-4.17-2.86-6.22-4.34-4-3-6-4.6-3.91-3.2-5.84-4.83-3.78-3.34-5.63-5.05-3.66-3.47-5.39-5.3-3.48-3.64-5.13-5.55a.2.2,0,0,1,0-.28.2.2,0,0,1,.26,0c2,1.55,3.91,3.15,5.9,4.68s3.95,3.08,5.95,4.58,4,3,6,4.49,4,2.92,6.07,4.37,4.08,2.86,6.14,4.24,4.13,2.76,6.2,4.14l6.25,4.06,6.34,3.92c2.13,1.27,4.28,2.53,6.46,3.72s4.38,2.35,6.61,3.46,4.47,2.18,6.75,3.18q1.7.78,3.42,1.48c1.14.49,2.29,1,3.45,1.4,2.31.92,4.65,1.76,7,2.55s4.73,1.51,7.13,2.18,4.81,1.24,7.24,1.77l3.66.73,3.68.61.73.75a33.25,33.25,0,0,0,1.69,7.36c.81,2.42,1.77,4.81,2.8,7.16a152.51,152.51,0,0,0,7,13.79.2.2,0,0,1-.07.27A.2.2,0,0,1,409,265.1Z"/><path class="cls-16" d="M104.07,274l3.34-.51c2.18-.31,5.37-.88,9.42-1.54l6.68-1.24c2.42-.52,5-1,7.83-1.64s5.75-1.29,8.83-2.15l4.76-1.25,4.94-1.44c3.38-.93,6.83-2.14,10.43-3.28s7.27-2.49,11-3.9,7.62-2.86,11.51-4.51l5.92-2.42,6-2.6c8.05-3.47,16.23-7.4,24.53-11.4s16.63-8.3,24.9-12.7l3.12-1.62.78-.4.71-.4,1.54-.86,3.07-1.72,1.53-.86,1.44-.92a111.76,111.76,0,0,0,11.17-7.78c7-5.65,13.28-12,17.52-19.4l1.53-2.76c.5-.92.87-1.9,1.31-2.84l.63-1.42c.2-.48.34-1,.52-1.45.33-1,.7-1.93,1-2.9a56.13,56.13,0,0,0,2.05-11.76,71.63,71.63,0,0,0-2.56-22,134.63,134.63,0,0,0-6.33-18c-2.25-5.24-4.37-9.75-6.13-13.47s-3.09-6.67-4-8.68l-1.33-3.11,1.57,3,4.63,8.35c2,3.6,4.44,8,7,13.13a121.66,121.66,0,0,1,7.34,18,70.81,70.81,0,0,1,3.53,22.92A60,60,0,0,1,294,179.15c-.3,1.06-.66,2.11-1,3.17-.18.53-.33,1.07-.53,1.59l-.65,1.55c-.45,1-.84,2.1-1.36,3.11l-1.6,3a32.45,32.45,0,0,1-1.78,2.94c-.64,1-1.21,2-1.92,2.88a68.51,68.51,0,0,1-4.38,5.44l-2.35,2.62-2.54,2.45c-1.67,1.68-3.52,3.13-5.34,4.65a116.4,116.4,0,0,1-11.68,8.24l-1.52,1-1.53.88-3.06,1.74-1.53.87-.82.46-.78.41-3.13,1.64c-8.34,4.38-16.77,8.61-25.13,12.63-4.2,2-8.34,4-12.53,5.78s-8.27,3.67-12.38,5.32L190.36,254l-6,2.29c-4,1.55-7.93,2.86-11.76,4.2-1.91.69-3.83,1.25-5.71,1.85s-3.72,1.21-5.56,1.72c-3.69,1-7.22,2.07-10.68,2.86l-5.05,1.23-4.86,1c-3.15.7-6.18,1.15-9,1.68s-5.5.85-8,1.2l-6.78.8c-4.1.41-7.32.68-9.52.83Z"/><path class="cls-18" d="M271.61,101.16a10,10,0,0,0-2-1.92,23.37,23.37,0,0,0-7-3.51L260.13,95c-.91-.21-1.88-.38-2.88-.58l-1.53-.3-1.61-.17-3.41-.35c-1.18-.06-2.4-.06-3.65-.09s-2.54-.11-3.87,0l-4.07.23c-.69,0-1.4.07-2.11.13l-2.14.27c-2.89.38-5.9.65-9,1.3s-6.29,1.08-9.52,1.95l-4.93,1.19-2.51.6-2.51.73c-3.36,1-6.82,1.93-10.29,3l-10.51,3.55c-1.79.57-3.51,1.27-5.3,1.94s-3.57,1.33-5.31,2.1a187.6,187.6,0,0,0-20.79,10A191.13,191.13,0,0,0,134.81,133a194.67,194.67,0,0,0-17.22,14.2A197,197,0,0,0,103,162.08c-4.4,5-8.3,9.91-11.71,14.6s-6.34,9.15-8.76,13.21-4.35,7.7-5.87,10.73-2.57,5.49-3.25,7.18c-.36.84-.59,1.5-.76,1.93l-.25.67-.29-.09.2-.69c.14-.45.31-1.13.61-2,.54-1.76,1.48-4.27,2.79-7.44A121.79,121.79,0,0,1,81,189a157.33,157.33,0,0,1,8.28-13.73,169.83,169.83,0,0,1,11.49-15.13,176.12,176.12,0,0,1,14.7-15.29,180.55,180.55,0,0,1,17.69-14.2,193.75,193.75,0,0,1,19.9-12.29,189.74,189.74,0,0,1,21.2-9.85c1.79-.75,3.58-1.38,5.37-2s3.57-1.33,5.37-1.88l10.62-3.41c3.51-1.05,7-1.95,10.39-2.9l2.53-.7,2.54-.57,5-1.1c3.26-.8,6.51-1.24,9.62-1.77s6.16-.81,9.08-1.14l2.16-.23c.72-.05,1.43-.06,2.13-.09l4.11-.15c1.33-.09,2.64,0,3.91.06s2.5.08,3.69.16l3.44.42,1.63.21,1.55.34c1,.23,2,.41,2.9.65l2.58.83a23.78,23.78,0,0,1,7,3.72,9.76,9.76,0,0,1,.91.81,5.11,5.11,0,0,1,.62.64,4.53,4.53,0,0,1,.45.57Z"/><path class="cls-19" d="M271.73,101.08s1-.31,2.86-.82,4.62-1.26,8.18-2,7.89-1.52,12.92-2.09a121,121,0,0,1,17-.77,105.84,105.84,0,0,1,20,2.48l2.63.66q1.33.31,2.64.73l2.66.81,2.65.95c1.79.59,3.52,1.41,5.3,2.14l2.61,1.27c.88.42,1.75.85,2.6,1.35l2.58,1.44c.85.51,1.67,1.06,2.52,1.59,1.71,1,3.29,2.27,4.94,3.44.82.59,1.57,1.27,2.37,1.9s1.6,1.26,2.33,2c1.49,1.4,3,2.74,4.43,4.27l2.14,2.24,2,2.37c1.38,1.55,2.57,3.26,3.84,4.91,2.44,3.37,4.75,6.77,7.12,10.18l3.43,5.2,1.71,2.6,1.64,2.64,3.27,5.26c1.05,1.77,2.05,3.56,3.08,5.33l1.52,2.66c.5.89.94,1.81,1.41,2.7l2.78,5.38,2.46,5.46c.39.91.84,1.79,1.19,2.71l1,2.75,1,2.73c.34.91.7,1.8.95,2.73l1.61,5.47c.13.45.27.9.39,1.35l.29,1.37.57,2.72a50.58,50.58,0,0,1,1,5.36l.65,5.26a21.86,21.86,0,0,1,.18,2.58l.1,2.55.1,2.5a20.83,20.83,0,0,1,0,2.46l-.21,4.77-.1,2.31c0,.76-.17,1.51-.24,2.25l-.54,4.34c-.27,2.83-.94,5.45-1.41,7.94l-.72,3.6c-.28,1.15-.6,2.24-.88,3.3l-1.56,5.8c-1.06,3.47-2,6.15-2.64,8l-1,2.82.85-2.85c.54-1.86,1.39-4.58,2.36-8.06l1.4-5.82c.25-1.06.53-2.16.78-3.31l.62-3.6c.4-2.48,1-5.1,1.18-7.92l.45-4.31c.06-.74.19-1.48.2-2.23l.06-2.29.13-4.72a20.38,20.38,0,0,0-.06-2.43L417,215l-.14-2.51a21.32,21.32,0,0,0-.22-2.54l-.73-5.17a49.45,49.45,0,0,0-1-5.26l-.6-2.66-.3-1.34c-.12-.44-.27-.88-.4-1.33l-1.65-5.37c-.25-.91-.61-1.79-1-2.69l-1-2.69-1-2.71c-.35-.91-.79-1.78-1.19-2.67l-2.46-5.38-2.78-5.31c-.47-.89-.92-1.79-1.41-2.67l-1.53-2.63c-1-1.75-2-3.52-3.08-5.27l-3.28-5.21L391.52,149l-1.72-2.57-3.43-5.15c-2.33-3.4-4.66-6.87-7-10.18-1.23-1.63-2.38-3.31-3.73-4.83l-2-2.33-2.08-2.2c-1.35-1.5-2.86-2.82-4.31-4.2-.71-.7-1.51-1.29-2.27-1.94s-1.51-1.29-2.3-1.87c-1.6-1.15-3.14-2.38-4.81-3.39-.82-.52-1.63-1.07-2.45-1.57l-2.51-1.43c-.83-.49-1.68-.92-2.54-1.34l-2.55-1.26-2.59-1.11c-.85-.39-1.71-.73-2.58-1l-2.58-1-2.6-.83q-1.29-.43-2.59-.76l-2.57-.69a104.56,104.56,0,0,0-19.7-2.77,135.9,135.9,0,0,0-29.78,2.12c-3.56.65-6.34,1.27-8.22,1.72S271.73,101.08,271.73,101.08Z"/><path class="cls-19" d="M125.19,139.66l-.62-.23c-.4-.16-1-.35-1.79-.68a54,54,0,0,1-6.56-3.19,72,72,0,0,1-9.41-6.37,74.15,74.15,0,0,1-10.62-10.33,61,61,0,0,1-9.43-15,51.29,51.29,0,0,1-3.09-9.3,44.48,44.48,0,0,1-1-10.26A45.8,45.8,0,0,1,88,63.55a79.35,79.35,0,0,1,5.85-9.27,102.75,102.75,0,0,1,7-8.43,135.24,135.24,0,0,1,16-14.58,159.11,159.11,0,0,1,17.29-11.73,155.94,155.94,0,0,1,17.37-8.87,140.86,140.86,0,0,1,16.39-6A113.28,113.28,0,0,1,182.3,1.31l3.14-.49c1-.13,2-.23,2.94-.33C190.27.26,192,.21,193.58.1s3-.06,4.19-.08,2.25,0,3.09.09l2.56.13-2.56.14c-1.67.05-4.11.33-7.19.71-1.54.24-3.24.44-5.07.83l-2.86.55-3.05.71a135.85,135.85,0,0,0-13.84,4.19c-5,1.81-10.27,4-15.72,6.68a186.76,186.76,0,0,0-16.65,9.24,181.33,181.33,0,0,0-16.59,11.75,131.45,131.45,0,0,0-15.33,14.18,97.82,97.82,0,0,0-6.71,8,74.57,74.57,0,0,0-5.53,8.6c-.73,1.48-1.47,2.85-2.11,4.53l-.5,1.2-.06.15s-.05.13,0,0l0,.07-.1.29-.2.58c-.25.78-.56,1.54-.75,2.33A38.71,38.71,0,0,0,87,84.46a44.2,44.2,0,0,0,.68,9.32,47.39,47.39,0,0,0,2.5,8.69A55.61,55.61,0,0,0,94,110.27a63.46,63.46,0,0,0,4.47,6.81,74.45,74.45,0,0,0,4.82,5.81c1.6,1.79,3.24,3.38,4.8,4.86a81.81,81.81,0,0,0,8.69,7,64.72,64.72,0,0,0,6.14,3.78c.73.41,1.32.66,1.7.86Z"/><path class="cls-16" d="M380.82,131.43l3.76,4.91c1.18,1.57,2.65,3.46,4.22,5.71s3.43,4.72,5.29,7.54,4,5.81,5.91,9.17l3.08,5.11c1,1.78,2,3.63,3,5.5.49.94,1,1.86,1.48,2.84l1.38,3c.9,2,1.94,4,2.68,6.07s1.65,4.18,2.39,6.32l2,6.52a101.41,101.41,0,0,1,2.5,13.36l.42,3.32.12,3.31.12,3.27.05,1.62-.07,1.6-.3,6.27c-.18,2-.51,4-.75,6a104.9,104.9,0,0,1-2,10.77c-.32,1.67-.78,3.22-1.22,4.7l-1.23,4.2c-.7,2.66-1.61,4.88-2.27,6.74l-2.15,5.8,1.58-6c.5-1.9,1.2-4.18,1.73-6.86l.93-4.24c.33-1.49.72-3.05.94-4.71l.82-5.15c.12-.89.34-1.79.4-2.71l.26-2.82c.16-1.9.41-3.85.5-5.85l.13-6.12,0-1.56-.09-1.57-.19-3.18L416,211l-.43-3.22a99.4,99.4,0,0,0-2.52-12.94l-1.88-6.36c-.71-2.09-1.53-4.13-2.28-6.18s-1.69-4-2.52-6l-1.29-2.93c-.42-1-.94-1.89-1.4-2.83l-2.77-5.5-2.85-5.17-1.37-2.49-1.4-2.37-2.66-4.52c-.83-1.46-1.71-2.81-2.51-4.12l-2.28-3.71c-1.42-2.34-2.71-4.35-3.76-6Z"/><path class="cls-15" d="M171.49,302.57l.88-.39c.58-.25,1.41-.64,2.5-1.09s2.42-1,4-1.58,3.29-1.2,5.21-1.84,4-1.3,6.24-2,4.6-1.28,7.06-1.89,5-1.2,7.64-1.71,5.29-1,8-1.4,5.38-.82,8.05-1.19a68.78,68.78,0,0,1,7.91-.65c1.29,0,2.57,0,3.81.08s2.47.19,3.66.36a48.72,48.72,0,0,1,6.67,1.31,32.47,32.47,0,0,1,5.48,2,20.21,20.21,0,0,1,3.91,2.36,10.55,10.55,0,0,1,1.28,1.12,5.83,5.83,0,0,1,.84.92c.42.53.62.82.62.82l-.46.53-.9-.36a8,8,0,0,0-1.06-.38c-.43-.12-.89-.29-1.45-.4a18.34,18.34,0,0,0-1.81-.37l-1-.18-1.12-.13c-1.53-.19-3.29-.29-5.2-.39s-4-.1-6.21-.08l-7,.06-7.54-.1c-2.58,0-5.22,0-7.85.21s-5.26.4-7.85.68-5.14.57-7.6.91-4.84.72-7.09,1.07-4.38.76-6.34,1.15c-3.91.78-7.15,1.6-9.4,2.18-1.13.28-2,.55-2.62.71l-.93.26Z"/><path class="cls-15" d="M397.3,303.2l-.74-.4c-.49-.25-1.18-.68-2.1-1.1s-2-1-3.31-1.49c-.64-.29-1.34-.54-2.08-.8s-1.51-.54-2.34-.78-1.68-.5-2.57-.72-1.82-.43-2.78-.63-2-.34-3-.54-2-.3-3.11-.4c-2.11-.23-4.3-.32-6.53-.38s-4.48,0-6.73.21a55.34,55.34,0,0,0-6.66.93c-2.18.42-4.29.9-6.34,1.33s-4,.79-5.94,1.12-3.69.71-5.35,1.06l-4.56,1-3.56.83-2.33.58-.85.2-.37-.59s.2-.24.59-.66a21.66,21.66,0,0,1,1.8-1.75,32.21,32.21,0,0,1,3.08-2.37,39.12,39.12,0,0,1,4.33-2.53,46,46,0,0,1,5.44-2.32,40.7,40.7,0,0,1,6.36-1.73,46.59,46.59,0,0,1,7-.69c2.39-.09,4.82-.07,7.24,0s4.84.25,7.2.5a62.93,62.93,0,0,1,6.88,1.21,56.54,56.54,0,0,1,6.26,1.81c1,.36,1.92.69,2.81,1.08s1.76.74,2.56,1.14,1.58.76,2.3,1.16,1.4.75,2,1.14,1.21.71,1.73,1.07l1.42,1c.86.59,1.46,1.12,1.9,1.45l.66.52Z"/><path class="cls-19" d="M171.58,302.81l.9-.35c.59-.22,1.44-.57,2.55-1,2.2-.81,5.38-1.87,9.25-3,1.93-.56,4-1.12,6.27-1.68s4.61-1.09,7.07-1.59,5-1,7.63-1.42,5.26-.83,7.93-1.15,5.34-.61,8-.85,5.25-.35,7.78-.37,5,.06,7.3.27a60.94,60.94,0,0,1,6.5.87,39,39,0,0,1,5.38,1.44A20.55,20.55,0,0,1,252,295.8a12.71,12.71,0,0,1,1.34.86,5.71,5.71,0,0,1,.92.72l.72.65a.1.1,0,0,1-.12.16h0l-.8-.52a7,7,0,0,0-1-.57,12.11,12.11,0,0,0-1.39-.66,18,18,0,0,0-1.79-.66,20.41,20.41,0,0,0-2.15-.63,46.29,46.29,0,0,0-5.3-1c-2-.23-4.1-.43-6.37-.52s-4.67-.17-7.16-.12-5.06.08-7.67.17-5.27.3-7.92.56-5.3.57-7.9.92-5.15.76-7.62,1.2-4.83.91-7.08,1.37-4.36,1-6.3,1.44c-3.89,1-7.1,1.9-9.32,2.62-1.12.34-2,.66-2.58.86l-.91.31a.1.1,0,0,1-.07-.19Z"/><path class="cls-19" d="M397.44,303l-.71-.45c-.47-.28-1.13-.75-2-1.23s-2-1.1-3.25-1.69c-.63-.32-1.33-.61-2.06-.92s-1.5-.63-2.32-.92-1.67-.6-2.57-.87-1.83-.53-2.79-.79-2-.45-3-.69-2.07-.4-3.15-.56a70.85,70.85,0,0,0-13.55-.71,87.1,87.1,0,0,0-13.45,1.7c-2.13.36-4.16.89-6.09,1.33s-3.73,1-5.38,1.51-3.16,1-4.48,1.53-2.45,1-3.39,1.39-1.65.76-2.14,1l-.76.37a.1.1,0,0,1-.14,0,.1.1,0,0,1,0-.13l.68-.5c.44-.34,1.12-.77,2-1.33s2-1.17,3.25-1.81,2.76-1.35,4.41-2a64.8,64.8,0,0,1,11.62-3.39,77.83,77.83,0,0,1,13.8-1.25,72.22,72.22,0,0,1,13.78,1.17,57.55,57.55,0,0,1,6.19,1.49c1,.3,1.91.58,2.8.92s1.76.64,2.57,1,1.59.67,2.31,1,1.42.67,2,1c1.27.66,2.34,1.31,3.21,1.85s1.52,1,2,1.32l.69.48a.1.1,0,0,1-.11.17Z"/><path class="cls-16" d="M113.5,280.3l.72,1.27c.21.42.41,1,.65,1.66s.38,1.4.54,2.23a24.67,24.67,0,0,1,.28,2.69,25.77,25.77,0,0,1,0,3,30.07,30.07,0,0,1-.34,3.2c-.18,1.08-.38,2.17-.65,3.25s-.53,2.16-.76,3.25a18,18,0,0,1-1,3.06,13.07,13.07,0,0,1-1.57,2.58,15.79,15.79,0,0,1-1.8,2.06,13.25,13.25,0,0,1-1.79,1.52l-.8.57-.75.42a10.89,10.89,0,0,1-1.1.53l-.41.16a.34.34,0,0,1-.47-.36v0l.05-.44c0-.28.1-.68.2-1.17l.39-1.7c.15-.64.37-1.32.58-2.07s.5-1.51.78-2.33a24.46,24.46,0,0,1,1-2.47c.44-.81.91-1.65,1.46-2.48a25.65,25.65,0,0,0,1.41-2.64c.43-.91.79-1.84,1.14-2.76s.65-1.84.93-2.74.5-1.78.66-2.62a22.11,22.11,0,0,0,.38-2.4c.05-.74.09-1.44.09-2s0-1.11-.11-1.57l-.29-1.44a.3.3,0,0,1,.56-.21Z"/><path class="cls-16" d="M77.07,280.43l.1,1.88c0,.6.05,1.33.12,2.15l.2,2.75.31,3.24.43,3.59c.21,1.23.37,2.51.6,3.79s.45,2.57.75,3.84a33.82,33.82,0,0,0,1.08,3.72c.46,1.19.85,2.35,1.21,3.46s.61,2.19.79,3.26.43,2,.66,2.92.42,1.75.59,2.53.39,1.42.54,2,.34,1,.44,1.36l.15.53v0a.4.4,0,0,1-.27.49.4.4,0,0,1-.2,0s-.19,0-.54-.16a11.5,11.5,0,0,1-1.49-.61,14.27,14.27,0,0,1-2-1.38,15,15,0,0,1-2.19-2.27,19.39,19.39,0,0,1-2-3.07,17.8,17.8,0,0,1-1.46-3.71,22.18,22.18,0,0,1-.62-4.16c-.05-1.42-.17-2.85-.2-4.26s-.09-2.82-.08-4.2.11-2.73.17-4,.22-2.56.37-3.74l.48-3.32c.37-2.06.68-3.74,1-4.9l.43-1.83a.35.35,0,0,1,.7.06Z"/><path class="cls-16" d="M280.19,131l-2.57.29c-.84.1-1.88.16-3.09.35s-2.59.37-4.13.57l-5.11.87-6,1.16c-4.25.94-9,2-14.17,3.43l-3.94,1.07L237.13,140c-2.76.8-5.59,1.73-8.5,2.63-5.8,1.93-11.89,4-18.1,6.41-1.56.57-3.11,1.22-4.69,1.83s-3.16,1.22-4.74,1.89c-3.16,1.33-6.36,2.65-9.55,4.07-6.4,2.8-12.82,5.83-19.14,9s-12.54,6.61-18.62,10-11.91,7.06-17.42,10.77c-2.81,1.77-5.43,3.72-8.1,5.5s-5.13,3.71-7.58,5.52c-4.84,3.7-9.38,7.27-13.41,10.76-2,1.75-4,3.41-5.72,5.08l-2.62,2.4L97.68,217l-1.17,1.16-4.34,4.28-3.57,3.76-1.53,1.61-1.3,1.46-2.06,2.32L82,233.57l1.37-2.2L85,228.74l1.06-1.67,1.3-1.82,3-4.27c1.16-1.52,2.47-3.11,3.84-4.84,2.8-3.41,6.06-7.2,9.89-11.07,1.85-2,3.94-3.92,6-6,1-1,2.16-2,3.29-3l3.45-3.07c2.37-2,4.85-4.06,7.41-6.12s5.23-4.09,8-6l4.19-3,4.34-2.91c2.89-2,5.94-3.8,9-5.71,6.14-3.66,12.47-7.25,19-10.49,1.61-.83,3.25-1.62,4.89-2.4s3.27-1.57,4.91-2.33c3.3-1.48,6.59-3,9.9-4.3,6.58-2.78,13.2-5.18,19.65-7.34s12.79-3.94,18.82-5.51,11.82-2.73,17.19-3.61c2.67-.49,5.26-.86,7.71-1.19s4.8-.53,7-.78,4.26-.35,6.17-.44l5.24-.16c3.18,0,5.65.07,7.34.19Z"/><path class="cls-16" d="M283.4,142.63l-1.92,2c-1.27,1.27-3.1,3.17-5.48,5.53s-5.43,5.09-8.9,8.25c-1.75,1.56-3.67,3.15-5.66,4.86l-3.09,2.61c-1,.9-2.15,1.78-3.29,2.67L248,174.08l-1.86,1.45-1.94,1.4-4,2.87c-5.31,4-11.12,7.8-17.14,11.8-3,1.94-6.17,3.86-9.32,5.83-1.58,1-3.15,2-4.77,2.94l-4.92,2.8-5,2.82c-1.66.94-3.31,1.91-5,2.78l-10.21,5.38c-1.7.91-3.43,1.75-5.17,2.57l-5.2,2.49c-3.46,1.65-6.9,3.33-10.4,4.78s-6.94,3-10.36,4.43-6.89,2.67-10.25,4l-5,1.92c-.83.31-1.65.64-2.47.93l-2.49.82-9.66,3.2c-1.57.51-3.11,1.06-4.65,1.51l-4.56,1.3L105,244.5c-2.76.82-5.46,1.42-8,2l-7.28,1.65c-4.54,1.12-8.59,1.73-11.9,2.31s-5.91,1-7.69,1.28l-2.72.43,2.65-.77c1.73-.49,4.26-1.23,7.49-2.11s7.15-1.92,11.58-3.37l7.08-2.22c2.49-.79,5.13-1.52,7.82-2.51l8.43-2.94,4.44-1.52c1.5-.52,3-1.13,4.53-1.71,6.11-2.35,12.59-4.74,19.15-7.55,3.29-1.39,6.67-2.71,10-4.22s6.72-3.07,10.14-4.59,6.8-3.21,10.22-4.84l5.13-2.48,2.57-1.24,2.53-1.31,10.13-5.22c1.7-.85,3.34-1.79,5-2.7l4.93-2.74,4.89-2.71c1.62-.9,3.2-1.86,4.79-2.78,3.17-1.86,6.31-3.67,9.37-5.51,6-3.83,12-7.33,17.4-11S248.29,169,253,165.78c2.39-1.59,4.53-3.3,6.66-4.8s4.14-3,6-4.36l9.55-7.36c2.58-2.14,4.65-3.77,6-4.91Z"/><path class="cls-16" d="M271.73,107.68l-2.7-.53c-.89-.15-2-.45-3.26-.57l-4.41-.55-5.51-.34c-2,0-4.18-.09-6.49,0s-4.78.13-7.36.43l-4,.35-4.14.55-2.14.28-2.17.38-4.45.79-4.57,1-2.34.5-2.35.6c-6.34,1.5-12.89,3.63-19.61,5.93s-13.46,5.26-20.26,8.32-13.47,6.68-20,10.58a214.26,214.26,0,0,0-18.87,12.43c-3,2.15-5.89,4.52-8.79,6.74-1.44,1.13-2.79,2.34-4.17,3.5s-2.77,2.29-4,3.53c-2.6,2.42-5.2,4.75-7.59,7.21l-3.6,3.58L105.61,176c-1.08,1.22-2.23,2.35-3.22,3.59l-3,3.59c-2,2.3-3.75,4.72-5.51,7s-3.24,4.54-4.76,6.66c-.73,1.07-1.5,2.09-2.15,3.13l-1.9,3c-2.54,3.9-4.43,7.48-6.09,10.39-.85,1.44-1.46,2.81-2.06,4l-1.49,3-1.24,2.46,1-2.57,1.19-3.09c.48-1.21,1-2.64,1.71-4.15,1.43-3,3-6.82,5.33-10.91l1.72-3.21c.59-1.1,1.29-2.18,2-3.31,1.39-2.24,2.76-4.66,4.45-7s3.28-4.93,5.22-7.38,3.85-5.07,6-7.57l3.27-3.85,3.53-3.79c2.32-2.62,5-5,7.55-7.57,1.28-1.29,2.69-2.46,4.06-3.7s2.74-2.49,4.18-3.68c2.9-2.36,5.78-4.82,8.88-7A216.71,216.71,0,0,1,153.48,131c6.68-3.93,13.59-7.43,20.5-10.66,3.5-1.5,6.94-3.08,10.45-4.36,1.75-.65,3.47-1.36,5.21-2l5.19-1.78a179.43,179.43,0,0,1,20.2-5.4l2.42-.52,2.41-.42,4.7-.8,4.58-.56,2.23-.27,2.19-.17,4.24-.33,4.07-.12c2.64-.13,5.15,0,7.5.07s4.55.32,6.58.48l5.54.8a68.78,68.78,0,0,1,7.6,1.83Z"/><path class="cls-16" d="M284,112l.85-.85a11.52,11.52,0,0,1,1.1-.95c.23-.18.47-.39.74-.58l.88-.58a27.24,27.24,0,0,1,4.77-2.48,42.9,42.9,0,0,1,6.68-2.08,59.64,59.64,0,0,1,8.19-1.16,73.2,73.2,0,0,1,9.22,0,83.79,83.79,0,0,1,9.76,1.29,91.67,91.67,0,0,1,9.83,2.52c1.63.5,3.21,1.11,4.81,1.67s3.15,1.22,4.66,1.93l2.27,1c.75.35,1.47.74,2.21,1.1,1.47.72,2.88,1.49,4.26,2.28,2.76,1.55,5.33,3.21,7.71,4.86s4.55,3.31,6.47,4.94,3.62,3.19,5.12,4.56,2.7,2.7,3.7,3.76,1.73,2,2.24,2.54l.78.91-1-.66c-.64-.44-1.61-1.06-2.79-1.89s-2.7-1.74-4.35-2.87-3.59-2.29-5.71-3.53c-1.05-.63-2.13-1.31-3.29-1.94s-2.3-1.36-3.55-2c-2.45-1.34-5.06-2.69-7.79-4s-5.59-2.57-8.53-3.75c-1.45-.63-3-1.11-4.46-1.71s-3-1.07-4.56-1.53c-3-1-6.16-1.8-9.22-2.55s-6.12-1.26-9.09-1.7-5.86-.68-8.61-.8-5.35-.08-7.75.08a55.32,55.32,0,0,0-6.51.84,35.73,35.73,0,0,0-4.91,1.35c-.67.24-1.26.47-1.76.71a11.06,11.06,0,0,0-1.28.62Z"/><path class="cls-16" d="M299.47,166.82l4.62,3.58c2.94,2.27,7.15,5.47,12.27,9.2,10.22,7.47,24.06,17.06,38.35,25.89,3.56,2.22,7.17,4.37,10.73,6.45s7.11,4.06,10.57,5.9a173.63,173.63,0,0,0,19.36,9.06,68.66,68.66,0,0,0,8.08,2.57,30.88,30.88,0,0,0,6.43.92,14.51,14.51,0,0,0,4.17-.47,8.15,8.15,0,0,0,1.07-.36l.36-.14-.32.22a6.65,6.65,0,0,1-1,.6,13.5,13.5,0,0,1-4.21,1.34,27.12,27.12,0,0,1-6.89.16,56,56,0,0,1-8.76-1.52,119.06,119.06,0,0,1-20.7-7.61c-3.65-1.69-7.36-3.57-11.06-5.59s-7.39-4.19-11-6.42-7.21-4.6-10.66-7-6.8-4.83-10-7.26c-6.36-4.86-12.06-9.71-16.75-14.07s-8.38-8.22-10.87-11c-1.26-1.37-2.2-2.51-2.84-3.27Z"/><path class="cls-16" d="M292.34,131.63l1.13-.71c.75-.44,1.79-1.17,3.23-1.93l2.47-1.16,1.42-.65,1.57-.54c1.09-.34,2.24-.81,3.5-1.12s2.59-.6,4-.9l4.42-.57c1.53-.1,3.12-.14,4.77-.21s3.32.11,5,.22,3.46.35,5.21.65,3.55.59,5.31,1.07l2.68.66c.9.23,1.77.53,2.66.8a97.83,97.83,0,0,1,10.55,3.94c1.72.77,3.41,1.59,5.09,2.4s3.32,1.7,4.92,2.62S363.48,138,365,139s3,1.9,4.48,2.89c2.91,1.94,5.62,4,8.16,5.91s4.84,3.9,6.92,5.76,3.93,3.61,5.54,5.19,3,3,4.06,4.21,1.92,2.17,2.49,2.83.84,1,.84,1l-4.12-3-4.74-3.34c-1.84-1.27-3.92-2.69-6.2-4.21s-4.76-3.14-7.4-4.82-5.45-3.39-8.38-5.09-6-3.4-9.14-5.05c-1.56-.85-3.19-1.58-4.78-2.41s-3.24-1.53-4.88-2.25-3.28-1.46-4.95-2.06l-2.48-1c-.83-.32-1.67-.58-2.49-.87a97.53,97.53,0,0,0-9.87-2.85c-1.62-.41-3.23-.62-4.8-1s-3.13-.41-4.65-.63l-4.43-.29H310l-3.83.29c-1.23.09-2.36.34-3.45.49l-1.58.26-1.43.35-2.56.61c-1.54.47-2.74.89-3.57,1.16Z"/><path class="cls-16" d="M297.14,146.42l1.33.55c.85.38,2.13.89,3.71,1.61,3.18,1.41,7.66,3.48,13,6.05s11.43,5.66,17.93,9l4.94,2.57c1.67.87,3.36,1.74,5,2.65l10.27,5.41,10.24,5.39,5,2.6,4.91,2.49c3.23,1.62,6.36,3.15,9.34,4.5s5.83,2.58,8.47,3.53a37.6,37.6,0,0,0,7.24,2,13.74,13.74,0,0,0,2.94.11,5.8,5.8,0,0,0,2.24-.66,4.83,4.83,0,0,0,2.14-2.76,8.38,8.38,0,0,0,.29-1l.09-.36.06.36a5.9,5.9,0,0,1,.13,1.08c0,.24,0,.52,0,.82s-.07.64-.15,1a5.56,5.56,0,0,1-1.22,2.36,7.63,7.63,0,0,1-2.77,1.94,14.92,14.92,0,0,1-3.69,1,33.5,33.5,0,0,1-8.64-.21,72.6,72.6,0,0,1-9.69-2.09c-3.36-.95-6.82-2.11-10.33-3.46-1.77-.65-3.52-1.39-5.3-2.14s-3.56-1.53-5.34-2.36c-3.57-1.63-7.11-3.43-10.64-5.26s-7-3.79-10.32-5.79c-1.68-1-3.33-2-5-3s-3.22-2-4.77-3c-6.22-4.05-11.84-8.11-16.53-11.77s-8.45-6.91-11-9.28c-1.29-1.17-2.26-2.16-2.93-2.8Z"/><path class="cls-16" d="M96,93s.13.18.34.51.53.85.93,1.41.89,1.24,1.45,2,1.22,1.54,2,2.38c.37.42.73.86,1.14,1.29s.8.89,1.24,1.35c.85.92,1.78,1.85,2.73,2.82,1.92,1.92,4,3.91,6.16,5.88,4.28,3.94,8.69,7.8,12.18,10.7,1.75,1.44,3.28,2.63,4.43,3.45.57.4,1,.76,1.37,1l.51.35s-.2.07-.6.16a11.73,11.73,0,0,1-1.74.29,17.29,17.29,0,0,1-2.72,0,24.4,24.4,0,0,1-3.48-.51A30.56,30.56,0,0,1,118,124.8a34.48,34.48,0,0,1-4.14-1.89c-.69-.37-1.39-.77-2.07-1.21s-1.37-.87-2-1.35a40.06,40.06,0,0,1-7.33-6.79c-.53-.64-1-1.29-1.51-2s-.94-1.32-1.36-2a27.94,27.94,0,0,1-3.5-8A20.46,20.46,0,0,1,95.46,98a15.73,15.73,0,0,1,0-2.76,9.74,9.74,0,0,1,.32-1.71C95.92,93.18,96,93,96,93Z"/><path class="cls-16" d="M294.15,41.35s.16.17.43.49a13.81,13.81,0,0,1,1.09,1.48,26,26,0,0,1,2.72,5.86A38.93,38.93,0,0,1,300.21,58c.09.82.13,1.65.16,2.5s0,1.71,0,2.57a45.71,45.71,0,0,1-.44,5.25,40.63,40.63,0,0,1-1.09,5.21l-.37,1.27L298.06,76c-.28.82-.61,1.63-1,2.4a29.5,29.5,0,0,1-2.39,4.34,23.6,23.6,0,0,1-2.83,3.49c-.49.5-1,.94-1.48,1.36s-1,.76-1.46,1.08a14.43,14.43,0,0,1-2.59,1.36,10.18,10.18,0,0,1-1.77.55c-.41.1-.63.13-.63.13l.34-.56c.23-.35.55-.85.89-1.51s.75-1.42,1.16-2.29.8-1.88,1.17-3c.17-.56.4-1.09.55-1.7s.37-1.19.52-1.83c.35-1.25.64-2.6.95-4,.57-2.79,1.08-5.8,1.52-8.87.24-1.53.42-3.08.63-4.6l.57-4.52,1-8.17.4-3.35.29-2.65c.06-.72.16-1.34.16-1.76S294.15,41.35,294.15,41.35Z"/><path class="cls-16" d="M255.69,23.37s.19.21.52.6.82,1,1.39,1.73,1.15,1.84,1.79,3.06A33.82,33.82,0,0,1,261.12,33c.26.79.54,1.63.77,2.5s.4,1.78.61,2.72.29,1.91.44,2.91a26.21,26.21,0,0,1,.27,3.06,48.33,48.33,0,0,1,0,6.41c0,1.09-.19,2.17-.33,3.27s-.28,2.19-.5,3.27l-.68,3.23c-.26,1.06-.59,2.1-.89,3.14L260.34,65l-.56,1.49c-.37,1-.73,2-1.12,2.91-.83,1.87-1.69,3.66-2.57,5.31s-1.84,3.14-2.75,4.49-1.85,2.53-2.67,3.57-1.64,1.87-2.3,2.57-1.22,1.21-1.58,1.57-.58.53-.58.53l.13-.79c.1-.5.22-1.26.44-2.17s.51-2,.78-3.27.63-2.66,1-4.16.74-3.15,1.2-4.83.82-3.5,1.29-5.32.9-3.72,1.26-5.65c.21-1,.39-1.93.63-2.89l.54-2.92c.23-1,.38-1.94.52-2.92s.38-1.93.48-2.9.26-1.92.41-2.86l.33-2.8c.05-.46.13-.92.17-1.37s.07-.9.11-1.35c.07-.89.19-1.77.23-2.62s.09-1.68.16-2.5,0-1.58.07-2.35c.1-1.53,0-2.9,0-4.17l-.11-3.26C255.72,24.49,255.69,23.37,255.69,23.37Z"/><path class="cls-16" d="M124.64,49.78l.23.82.26,1c.12.38.25.8.39,1.27.58,1.9,1.45,4.55,2.6,7.64.58,1.54,1.22,3.2,1.93,4.93s1.47,3.54,2.26,5.41l1.25,2.82,1.32,2.86c.9,1.91,1.83,3.84,2.81,5.73s2,3.77,3,5.6,2.07,3.59,3.15,5.24,2.14,3.24,3.22,4.7c.54.72,1.07,1.44,1.61,2.09l.79,1c.27.31.55.6.8.91a42.07,42.07,0,0,0,3,3.16,33.5,33.5,0,0,0,2.64,2.26c.77.62,1.42,1.08,1.87,1.37l.69.49s-.29,0-.85,0a14.37,14.37,0,0,1-2.42-.2,12.38,12.38,0,0,1-1.71-.34,18.35,18.35,0,0,1-2-.59,26.59,26.59,0,0,1-4.53-2.08,34.06,34.06,0,0,1-4.83-3.37,42.68,42.68,0,0,1-4.67-4.55c-.77-.83-1.47-1.73-2.18-2.64s-1.39-1.86-2-2.84a63,63,0,0,1-3.59-6.11,65,65,0,0,1-2.84-6.45,59.57,59.57,0,0,1-2.06-6.49,57.85,57.85,0,0,1-1.25-6.24,51.17,51.17,0,0,1-.5-5.69,36.34,36.34,0,0,1,.7-8.55,19,19,0,0,1,.64-2.32Z"/><path class="cls-16" d="M178.17,16.63l.45.83c.27.55.71,1.34,1.18,2.36,1,2,2.26,5,3.6,8.61s2.72,7.83,4,12.42c.33,1.14.63,2.31.94,3.5s.62,2.38.89,3.6c.59,2.42,1.11,4.9,1.62,7.38s1,5,1.34,7.43q.32,1.84.56,3.66c.17,1.21.35,2.4.48,3.59.59,4.72.95,9.15,1.11,13s.14,7.05,0,9.32c0,1.13-.12,2-.16,2.64l-.09.94-.42-.84c-.25-.55-.66-1.36-1.11-2.4-.92-2.08-2.13-5.06-3.4-8.67s-2.59-7.86-3.82-12.44c-.32-1.14-.61-2.31-.91-3.49s-.6-2.38-.87-3.59c-.58-2.42-1.08-4.89-1.6-7.36s-1-5-1.34-7.41-.78-4.87-1.08-7.22c-.63-4.7-1-9.12-1.28-12.94-.11-1.91-.2-3.66-.24-5.22s-.05-2.94,0-4.07.06-2,.07-2.64Z"/><path class="cls-19" d="M96,93l.17.54c.1.35.27.88.51,1.51s.57,1.39,1,2.24S98.53,99,99.12,100c.3.49.6,1,1,1.51s.69,1,1.08,1.57c.76,1.07,1.63,2.14,2.54,3.24s1.94,2.17,3,3.27,2.12,2.16,3.27,3.18a85.91,85.91,0,0,0,6.91,5.74c1.17.83,2.29,1.66,3.4,2.37s2.17,1.37,3.16,2,1.94,1.07,2.79,1.47,1.6.74,2.24,1,1.14.44,1.49.53l.54.18h-.57a13.27,13.27,0,0,1-1.61-.13,25.21,25.21,0,0,1-5.61-1.48,41.42,41.42,0,0,1-7.31-3.71c-1.26-.82-2.56-1.67-3.8-2.64s-2.48-2-3.66-3.08-2.29-2.25-3.35-3.41a43.85,43.85,0,0,1-2.91-3.62,33.76,33.76,0,0,1-2.35-3.66,27.13,27.13,0,0,1-1.69-3.52,22.43,22.43,0,0,1-1-3.13,17.34,17.34,0,0,1-.46-2.49,11.68,11.68,0,0,1-.1-1.61Z"/><path class="cls-19" d="M294.15,41.35l.27.54c.17.35.41.88.67,1.57s.55,1.54.81,2.54.55,2.12.76,3.37.44,2.6.58,4,.28,3,.29,4.56,0,3.22-.07,4.89-.26,3.35-.49,5a50,50,0,0,1-1,5,43.55,43.55,0,0,1-1.45,4.72,31.71,31.71,0,0,1-1.91,4.22,24.27,24.27,0,0,1-2.24,3.51c-.38.52-.8,1-1.17,1.43s-.81.81-1.17,1.18A16.16,16.16,0,0,1,286,89.61a11,11,0,0,1-1.48.87l-.54.28.44-.42a15.59,15.59,0,0,0,1.19-1.19,23.21,23.21,0,0,0,1.64-2A30.14,30.14,0,0,0,289,84.38c.27-.54.59-1.08.84-1.68s.56-1.19.81-1.84c.53-1.27,1-2.67,1.43-4.1s.79-3,1.12-4.53.62-3.15.83-4.76.43-3.22.58-4.82.28-3.17.32-4.7.11-3,.12-4.42,0-2.74-.06-4-.11-2.36-.18-3.36-.17-1.87-.27-2.59-.17-1.28-.26-1.67Z"/><path class="cls-19" d="M255.69,23.37s.51.92,1.35,2.56c.34.86.8,1.9,1.23,3.13a38.64,38.64,0,0,1,1.15,4.2c.15.78.36,1.6.49,2.45l.35,2.65c.13.91.14,1.85.22,2.81a26.6,26.6,0,0,1,.08,2.94c0,1,0,2,0,3s-.13,2.07-.22,3.11-.26,2.09-.39,3.14-.28,2.11-.49,3.15l-.64,3.12-.8,3.06-.39,1.51-.49,1.47-1,2.87c-.69,1.86-1.42,3.64-2.14,5.31s-1.5,3.2-2.23,4.61-1.48,2.65-2.12,3.76-1.3,2-1.79,2.8c-1,1.53-1.63,2.39-1.63,2.39s.39-1,1.11-2.67c.35-.85.82-1.85,1.29-3s1-2.52,1.58-4l1.72-4.72,1.72-5.32c.5-1.87,1.11-3.78,1.55-5.75l.72-3,.57-3c.23-1,.38-2,.53-3s.34-2,.42-3,.2-2,.32-3,.12-2,.19-2.92c0-.48.06-1,.08-1.43v-1.4c0-.92.07-1.84,0-2.72l-.11-2.57c0-.83-.14-1.63-.2-2.4-.11-1.55-.4-2.93-.56-4.19l-.67-3.19C256,24.39,255.69,23.37,255.69,23.37Z"/><path class="cls-19" d="M124.64,49.78l.06.81c0,.53.11,1.31.22,2.28s.29,2.15.54,3.49.58,2.83,1,4.46.89,3.36,1.45,5.19,1.23,3.72,1.93,5.69,1.54,3.94,2.4,5.94,1.81,4,2.83,6,2.07,3.91,3.19,5.77,2.27,3.67,3.51,5.32,2.46,3.23,3.7,4.66c.64.69,1.25,1.39,1.89,2l.92.93.94.85a36.37,36.37,0,0,0,3.54,2.8c.54.42,1.1.69,1.59,1a13.57,13.57,0,0,0,1.4.79,21,21,0,0,0,2.05,1l.75.32-.79-.17a15.18,15.18,0,0,1-2.24-.59,21.76,21.76,0,0,1-3.35-1.37,27.94,27.94,0,0,1-4-2.45,35.45,35.45,0,0,1-4.29-3.58,45.92,45.92,0,0,1-4.19-4.6,58.09,58.09,0,0,1-3.87-5.39c-1.2-1.92-2.35-3.9-3.4-5.93s-2-4.13-2.83-6.21-1.56-4.18-2.23-6.22-1.17-4-1.59-6-.75-3.74-1-5.44-.36-3.26-.41-4.65,0-2.6,0-3.6a22.54,22.54,0,0,1,.21-2.3Z"/><path class="cls-19" d="M178.17,16.63s.4,1.21,1,3.33,1.52,5.16,2.49,8.84c.48,1.84,1,3.82,1.51,5.94s1.07,4.34,1.58,6.65,1.09,4.7,1.58,7.13l1.53,7.39,1.42,7.41c.48,2.44.86,4.86,1.28,7.19s.77,4.6,1.11,6.74.64,4.18.91,6.06c1.08,7.51,1.52,12.57,1.52,12.57s-1.43-4.87-3.22-12.25c-.45-1.84-.94-3.84-1.41-6s-1-4.35-1.5-6.66-1-4.7-1.53-7.14L185,56.49l-1.43-7.4c-.48-2.44-.89-4.85-1.33-7.18-.85-4.66-1.59-9-2.19-12.76s-1.07-6.87-1.39-9.06S178.17,16.63,178.17,16.63Z"/><path class="cls-19" d="M280.19,131l-2.58.08c-1.68,0-4.14.2-7.27.43l-5.17.56-6.06.85c-4.31.73-9.16,1.6-14.4,2.8s-10.88,2.66-16.81,4.34-12.09,3.74-18.42,6-12.8,4.78-19.27,7.59c-3.26,1.36-6.48,2.87-9.73,4.34-1.62.75-3.22,1.55-4.83,2.32s-3.23,1.56-4.81,2.39c-6.43,3.17-12.67,6.69-18.78,10.22-3,1.85-6,3.59-8.92,5.5l-4.33,2.79-4.19,2.87c-2.8,1.86-5.42,3.88-8.06,5.74s-5.09,3.87-7.51,5.78c-4.78,3.88-9.21,7.66-13.13,11.35-1.95,1.85-3.85,3.59-5.55,5.36l-2.52,2.55-1.21,1.22-1.12,1.23-4.12,4.52-3.34,4-1.43,1.71-1.2,1.56-1.88,2.46-1.57,2,1.53-2.07L85.34,229l1.17-1.58,1.4-1.73,3.28-4,4.05-4.6c2.94-3.24,6.35-6.82,10.27-10.52S113.82,199,118.58,195c2.41-1.93,4.9-3.9,7.48-5.87s5.25-3.93,8.05-5.8l4.2-2.89,4.34-2.81c2.89-1.92,5.93-3.68,8.93-5.54,6.12-3.55,12.37-7.1,18.81-10.31,1.59-.83,3.21-1.61,4.83-2.38s3.23-1.56,4.86-2.31c3.27-1.47,6.5-3,9.77-4.32,6.5-2.8,13-5.28,19.35-7.55s12.58-4.18,18.5-5.9,11.61-3.1,16.89-4.19,10.14-2,14.47-2.6l6.09-.75,5.18-.47c3.14-.18,5.6-.32,7.28-.31Z"/><path class="cls-19" d="M283.4,142.63l-7.75,7.13c-2.51,2.22-5.63,4.84-9.16,7.88-1.8,1.49-3.75,3-5.79,4.66l-3.15,2.51c-1.07.87-2.19,1.72-3.35,2.57L247,172.72l-1.88,1.4-2,1.36-4,2.78c-5.35,3.84-11.22,7.55-17.24,11.47-3,1.9-6.19,3.76-9.35,5.69-1.59.95-3.16,1.94-4.78,2.87l-4.91,2.77L198,203.85c-1.66.93-3.3,1.89-5,2.75l-10.17,5.32c-.85.44-1.7.89-2.55,1.32l-2.59,1.24L172.47,217c-3.45,1.64-6.85,3.34-10.33,4.8l-10.27,4.5c-3.39,1.47-6.82,2.74-10.15,4.09l-5,2c-.82.32-1.63.66-2.45,1l-2.46.86-9.56,3.36c-1.56.53-3.08,1.11-4.6,1.59l-4.51,1.39-8.56,2.64c-2.73.89-5.41,1.55-7.94,2.22l-7.19,1.88c-4.5,1.25-8.49,2-11.77,2.75l-10.29,2.22,10.25-2.38c3.26-.76,7.24-1.61,11.71-2.94l7.16-2c2.52-.71,5.18-1.38,7.9-2.3l8.53-2.72,4.49-1.43c1.52-.49,3-1.08,4.58-1.63,6.18-2.25,12.73-4.51,19.35-7.27,3.32-1.36,6.73-2.64,10.12-4.11l10.24-4.52c3.47-1.47,6.86-3.18,10.29-4.82l5.15-2.49,2.58-1.25c.86-.42,1.7-.88,2.55-1.32l10.17-5.28c1.7-.86,3.35-1.81,5-2.73l4.94-2.77,4.91-2.75c1.62-.93,3.19-1.91,4.78-2.85,3.16-1.91,6.3-3.76,9.35-5.65,6-3.91,11.92-7.55,17.29-11.33l4-2.74,2-1.34,1.89-1.38,7.23-5.28c2.35-1.66,4.45-3.42,6.54-5s4-3.1,5.86-4.56c3.58-3,6.73-5.55,9.28-7.73Z"/><path class="cls-16" d="M289.39,159.07,288,161.54c-.45.81-1,1.78-1.75,2.93s-1.53,2.46-2.5,3.9c-1.93,2.88-4.36,6.34-7.42,10.1s-6.61,7.93-10.78,12.2-8.83,8.78-14,13.21-10.83,9-16.94,13.29-12.48,8.66-19.23,12.66-13.71,7.87-20.84,11.42-14.39,6.83-21.68,9.74-14.56,5.51-21.7,7.72-14.16,4-20.88,5.36c-3.36.69-6.64,1.3-9.84,1.77s-6.3.83-9.29,1.08-5.86.42-8.6.48-5.34,0-7.78-.2a61.87,61.87,0,0,1-12.49-1.93,36.2,36.2,0,0,1-7.58-2.86,19.81,19.81,0,0,1-1.85-1l-.62-.37.68.27c.45.16,1.09.46,2,.73a40.29,40.29,0,0,0,7.71,1.72,70.66,70.66,0,0,0,12.21.43,127.84,127.84,0,0,0,15.76-1.77c5.74-1,11.89-2.41,18.34-4.1s13.16-3.89,20-6.29,13.9-5.16,20.95-8.15,14.12-6.24,21.08-9.73,13.82-7.15,20.48-10.95,13.09-7.73,19.17-11.77,11.86-8.08,17.18-12.14,10.23-8,14.64-11.9,8.3-7.54,11.66-10.92,6.18-6.44,8.43-9,4-4.66,5.13-6.12Z"/><path class="cls-19" d="M289.39,159.07l-1.54,2.38c-.49.78-1.14,1.72-1.9,2.82s-1.65,2.36-2.68,3.74c-2.05,2.77-4.64,6.07-7.8,9.69s-6.85,7.61-11.11,11.72A249.91,249.91,0,0,1,233.07,215c-6.09,4.21-12.52,8.36-19.22,12.3s-13.62,7.75-20.68,11.28a324.87,324.87,0,0,1-42.88,17.6,210.14,210.14,0,0,1-39.4,9c-2.94.37-5.77.59-8.47.75s-5.26.18-7.67.09a66,66,0,0,1-12.38-1.37,37.08,37.08,0,0,1-7.63-2.43c-.86-.34-1.47-.72-1.89-.92l-.64-.33.65.31c.44.19,1.05.54,1.92.85a39.16,39.16,0,0,0,7.66,2.15,65.44,65.44,0,0,0,12.32,1,120.55,120.55,0,0,0,16-1.21,180.07,180.07,0,0,0,18.64-3.63c6.55-1.61,13.37-3.64,20.36-5.94a324.06,324.06,0,0,0,42.53-17.74c7-3.46,14-7.21,20.63-11.09s13.1-8,19.18-12.12S243.9,205.2,249.18,201s10.11-8.37,14.41-12.39,8.09-7.87,11.33-11.4,5.92-6.73,8-9.44c1.06-1.35,2-2.57,2.79-3.64s1.48-2,2-2.74Z"/><path class="cls-19" d="M271.73,107.68l-2.67-.65a76,76,0,0,0-7.64-1.44L255.9,105c-2-.06-4.2-.22-6.53-.22s-4.82,0-7.43.21l-4,.25-4.19.45-2.16.23-2.19.33-4.51.68-4.63.89-2.37.46-2.38.56a194.56,194.56,0,0,0-19.88,5.68c-6.8,2.31-13.66,5.14-20.53,8.23s-13.63,6.72-20.2,10.63a215.69,215.69,0,0,0-19,12.6c-3.08,2.18-5.94,4.58-8.84,6.87-1.44,1.15-2.79,2.4-4.18,3.58s-2.78,2.34-4.05,3.6c-2.6,2.48-5.22,4.84-7.57,7.37l-3.56,3.68-3.31,3.74c-2.23,2.42-4.2,4.95-6.14,7.36s-3.66,4.86-5.37,7.16S89.66,194,88.2,196.2c-.71,1.1-1.45,2.14-2.07,3.21l-1.82,3.12c-2.44,4-4.2,7.65-5.75,10.62-.8,1.47-1.36,2.87-1.9,4l-1.35,3-1.13,2.51,1.11-2.52,1.33-3c.54-1.18,1.08-2.58,1.87-4.06,1.53-3,3.26-6.67,5.67-10.68L86,199.3c.62-1.08,1.35-2.12,2-3.23,1.44-2.19,2.86-4.55,4.6-6.85S96,184.41,98,182s3.9-5,6.13-7.39l3.31-3.76,3.56-3.69c2.35-2.54,5-4.92,7.57-7.4,1.28-1.27,2.69-2.41,4.05-3.62s2.74-2.44,4.18-3.6c2.9-2.3,5.76-4.72,8.84-6.91a215.27,215.27,0,0,1,19-12.68c6.6-3.91,13.44-7.39,20.27-10.6s13.77-5.89,20.59-8.19a194.91,194.91,0,0,1,19.93-5.64l2.39-.55,2.38-.46,4.64-.88,4.52-.67,2.2-.32,2.17-.23,4.2-.44,4-.23c2.61-.2,5.1-.11,7.44-.15s4.52.2,6.54.27l5.52.59a76.1,76.1,0,0,1,7.63,1.5Z"/><path class="cls-19" d="M284,112l.94-.72a11.54,11.54,0,0,1,1.18-.79,15.45,15.45,0,0,1,1.68-1,30.68,30.68,0,0,1,4.83-2,45.06,45.06,0,0,1,6.6-1.51,66.91,66.91,0,0,1,8-.64,83.86,83.86,0,0,1,8.94.38c3.09.32,6.26.81,9.45,1.47s6.4,1.49,9.55,2.51c1.58.48,3.13,1.08,4.69,1.62s3.08,1.16,4.56,1.84,3,1.29,4.41,2,2.85,1.4,4.22,2.12c2.75,1.44,5.34,3,7.75,4.46s4.65,3,6.65,4.46,3.8,2.86,5.4,4.08,2.9,2.41,4,3.35l3.38,3-3.44-3c-1.11-.93-2.49-2-4.05-3.28s-3.4-2.61-5.44-4-4.26-2.91-6.66-4.41-5-3-7.76-4.39c-1.37-.71-2.77-1.43-4.22-2.08s-2.91-1.33-4.41-2-3-1.19-4.56-1.8-3.1-1.11-4.68-1.58c-3.13-1-6.33-1.84-9.49-2.56s-6.33-1.18-9.4-1.52a83.51,83.51,0,0,0-8.89-.43,66.62,66.62,0,0,0-8,.59,51,51,0,0,0-6.59,1.41,30.55,30.55,0,0,0-4.85,1.87,15.39,15.39,0,0,0-1.69.92,11.51,11.51,0,0,0-1.2.77Z"/><path class="cls-19" d="M299.47,166.82s1.59,1.41,4.42,3.8,6.91,5.76,11.91,9.66c2.5,1.94,5.25,4,8.16,6.18s6,4.38,9.27,6.67,6.63,4.56,10.09,6.87,7,4.58,10.61,6.78,7.2,4.4,10.8,6.45,7.17,4,10.69,5.83,6.94,3.47,10.25,4.93,6.48,2.73,9.45,3.76a66.07,66.07,0,0,0,8.25,2.3,29.63,29.63,0,0,0,6.55.65,14.32,14.32,0,0,0,4.18-.68,7.25,7.25,0,0,0,1-.42l.35-.17-.33.2a7.34,7.34,0,0,1-1,.54,13.61,13.61,0,0,1-4.2,1.13c-3.75.49-9.19-.15-15.36-1.9a99.43,99.43,0,0,1-9.8-3.34c-3.42-1.34-7-2.89-10.56-4.64s-7.28-3.62-10.94-5.67-7.33-4.2-11-6.43-7.17-4.58-10.64-6.93-6.8-4.77-10-7.13-6.24-4.75-9.09-7-5.49-4.52-7.88-6.62c-4.8-4.19-8.62-7.89-11.23-10.54-1.31-1.31-2.3-2.39-3-3.12Z"/><path class="cls-19" d="M292.34,131.63l1.19-.58c.78-.36,1.89-1,3.37-1.6l2.51-.92,1.43-.52,1.57-.42c1.09-.26,2.23-.65,3.48-.86l3.92-.64,4.31-.33h4.63c1.58.12,3.21.22,4.87.38s3.35.44,5,.79,3.43.66,5.14,1.17l2.6.7c.87.24,1.72.54,2.59.81s1.74.54,2.6.86l2.58,1c1.74.61,3.41,1.39,5.12,2.08s3.35,1.55,5,2.35,3.28,1.64,4.86,2.54,3.17,1.74,4.69,2.66,3,1.82,4.49,2.74c2.93,1.83,5.67,3.73,8.25,5.57s5,3.65,7.12,5.36c4.34,3.41,7.79,6.46,10.17,8.62s3.66,3.49,3.66,3.49-1.35-1.25-3.79-3.34-6-5-10.38-8.32c-2.19-1.67-4.61-3.41-7.2-5.21s-5.37-3.61-8.29-5.43c-1.46-.91-2.95-1.82-4.48-2.7s-3.09-1.76-4.68-2.62-3.22-1.65-4.84-2.49-3.3-1.56-5-2.3-3.35-1.49-5.06-2.1l-2.55-1c-.85-.32-1.72-.58-2.57-.86s-1.7-.58-2.56-.82l-2.57-.71c-1.69-.51-3.41-.8-5.08-1.19s-3.35-.54-5-.83-3.24-.32-4.81-.47l-4.57-.08-4.27.25-3.9.55c-1.24.18-2.38.52-3.47.75l-1.58.37-1.43.48-2.52.84c-1.49.59-2.63,1.14-3.43,1.48Z"/><path class="cls-19" d="M297.14,146.42l17.09,9.69L331.74,166l9.91,5.46c3.37,1.86,6.82,3.71,10.29,5.52s6.91,3.65,10.35,5.36,6.82,3.4,10.14,4.91a137.93,137.93,0,0,0,18.48,7.29,35.77,35.77,0,0,0,7.66,1.45,13.88,13.88,0,0,0,3.16-.22,6.08,6.08,0,0,0,2.4-1A5.25,5.25,0,0,0,406,191.5a7.49,7.49,0,0,0,.17-1l0-.36,0,.36a6.46,6.46,0,0,1,0,1.06,5.55,5.55,0,0,1-1.61,3.76,7,7,0,0,1-2.61,1.56,13.72,13.72,0,0,1-3.47.63,32.61,32.61,0,0,1-8.22-.75,74.32,74.32,0,0,1-9.32-2.52c-3.24-1.07-6.62-2.32-10-3.77s-6.94-3-10.43-4.67-7-3.47-10.52-5.3-6.93-3.77-10.3-5.68-6.64-3.89-9.8-5.8-6.17-3.83-9-5.66-5.5-3.61-7.94-5.28c-4.88-3.32-8.86-6.23-11.6-8.31-1.38-1-2.44-1.88-3.16-2.45Z"/><path class="cls-19" d="M113.31,280.37l.58,1.33c.16.43.29,1,.47,1.63s.24,1.37.33,2.17a23.64,23.64,0,0,1,.06,2.59,25.27,25.27,0,0,1-.23,2.88c-.14,1-.31,2-.54,3s-.48,2.07-.8,3.09-.66,2-1,3-.72,2-1.17,2.87a22.72,22.72,0,0,1-1.4,2.54c-.25.39-.47.78-.72,1.13l-.74,1a20.54,20.54,0,0,1-1.38,1.71,13.71,13.71,0,0,1-1.17,1.23c-.68.65-1.09,1-1.09,1a.1.1,0,0,1-.16-.12h0s.23-.49.67-1.3c.23-.4.49-.89.78-1.46s.64-1.19,1-1.89.74-1.43,1.12-2.24.8-1.64,1.21-2.51.85-1.77,1.32-2.67.85-1.87,1.19-2.84.69-1.95,1-2.92.53-1.95.73-2.9.35-1.87.44-2.76a22.79,22.79,0,0,0,.17-2.5c0-.77-.06-1.49-.12-2.11s-.18-1.15-.29-1.6l-.44-1.38a.1.1,0,0,1,.06-.13A.1.1,0,0,1,113.31,280.37Z"/><path class="cls-19" d="M76.82,280.41l-.1,1.86c0,.59-.08,1.31-.1,2.14l-.05,2.77,0,3.27.14,3.64c.11,1.26.16,2.56.32,3.88s.3,2.65.52,4,.49,2.63.77,3.92.61,2.53,1,3.71.71,2.33,1,3.42.73,2.08,1.15,3,.8,1.71,1.16,2.44.78,1.28,1.07,1.8l.82,1.09.29.4h0a.1.1,0,0,1-.14.14s-.56-.39-1.5-1.18a20.08,20.08,0,0,1-1.51-1.61,18.81,18.81,0,0,1-1.62-2.36,25.68,25.68,0,0,1-1.53-3,29.78,29.78,0,0,1-1.22-3.55c-.35-1.25-.59-2.57-.83-3.91s-.41-2.7-.51-4.07-.24-2.73-.31-4.08-.07-2.67-.11-3.95,0-2.52.08-3.69l.21-3.29.26-2.78c.07-.83.19-1.54.25-2.13l.23-1.85a.1.1,0,0,1,.2,0Z"/><path class="cls-1" d="M115.54,328.39c-6.82-5-19.55-14-19.55,8.47s3.12,36.54,17.7,47,11.4,2.73,11.4,2.73"/><path class="cls-6" d="M96,336.86s.1,1.06.22,2.92.34,4.5.66,7.66c.07.79.16,1.61.28,2.46s.19,1.72.34,2.62l.44,2.75.56,2.84a59.75,59.75,0,0,0,1.59,5.81c.28,1,.72,1.92,1.07,2.89s.87,1.87,1.3,2.81,1,1.8,1.5,2.71,1.13,1.71,1.73,2.53,1.24,1.6,1.9,2.35,1.33,1.48,2,2.15l2.11,1.95,2.14,1.75c1.44,1.11,2.82,2.12,4.12,3a36.62,36.62,0,0,0,3.65,2.23,4.64,4.64,0,0,0,3,.73,1,1,0,0,0,.61-.81,3,3,0,0,0,0-.89,4,4,0,0,0-.16-.74,4,4,0,0,1,.27.72,3.14,3.14,0,0,1,.13.93,1.25,1.25,0,0,1-.69,1.15,2.76,2.76,0,0,1-1.65.11,10.15,10.15,0,0,1-1.8-.52,27.24,27.24,0,0,1-4-1.94c-1.4-.8-2.88-1.72-4.39-2.78l-2.31-1.68c-.76-.61-1.5-1.28-2.28-1.94s-1.46-1.45-2.2-2.19-1.37-1.61-2.06-2.43-1.24-1.77-1.86-2.66-1.11-1.88-1.61-2.84-.95-2-1.33-3-.8-2-1.09-3a50.38,50.38,0,0,1-1.48-6.07c-.16-1-.34-2-.46-2.93l-.3-2.82c-.14-1.83-.27-3.57-.28-5.17s-.05-3.07,0-4.37,0-2.43.1-3.36C95.91,337.92,96,336.86,96,336.86Z"/></g></g></svg>