<?xml version="1.0" encoding="utf-8"?>
<!-- Generator: Adobe Illustrator 19.2.0, SVG Export Plug-In . SVG Version: 6.00 Build 0)  -->
<svg version="1.1" id="Layer_1" xmlns="http://www.w3.org/2000/svg" xmlns:xlink="http://www.w3.org/1999/xlink" x="0px" y="0px" width="126" height="11px"
	 viewBox="0 0 126 11" style="enable-background:new 0 0 126 11;" xml:space="preserve">
<style type="text/css">
	.st0{fill:#FFFFFF;}
</style>
<g>
	<g>
		<g>
			<path class="st0" d="M5.9,11L4.2,7.3H3V11H0V0.1h4.9c0.6,0,1.2,0.1,1.7,0.2c0.5,0.1,1,0.3,1.3,0.6C8.3,1.2,8.6,1.6,8.8,2
				C9,2.5,9.1,3,9.1,3.7c0,0.8-0.2,1.5-0.5,2S7.7,6.6,7.1,6.8L9.3,11H5.9z M5.8,2.9c-0.2-0.2-0.5-0.3-1-0.3H3v2.4h1.8
				c0.5,0,0.9-0.1,1.1-0.3C6,4.4,6.1,4.1,6.1,3.7C6.1,3.4,6,3.1,5.8,2.9z"/>
		</g>
		<g>
			<path class="st0" d="M11.1,11V0.1h8.3v2.5h-5.3v1.5h3.2v2.5h-3.2v1.9h5.5V11H11.1z"/>
		</g>
		<g>
			<path class="st0" d="M30.5,8.1c-0.2,0.7-0.6,1.3-1.1,1.7c-0.5,0.4-1.1,0.7-1.8,0.9C26.8,10.9,26,11,25,11h-3.5V0.1h3.8
				c0.8,0,1.6,0.1,2.3,0.3c0.7,0.2,1.3,0.5,1.8,0.9c0.5,0.4,0.9,1,1.1,1.7c0.3,0.7,0.4,1.5,0.4,2.6C30.9,6.5,30.8,7.4,30.5,8.1z
				 M27.7,4.3c-0.1-0.4-0.2-0.7-0.4-0.9C27,3.1,26.8,3,26.5,2.9c-0.3-0.1-0.7-0.2-1.2-0.2h-0.7v5.7h0.7c0.5,0,0.9,0,1.2-0.1
				C26.7,8.2,27,8,27.2,7.8c0.2-0.2,0.4-0.5,0.5-0.9c0.1-0.4,0.1-0.8,0.1-1.4C27.8,5,27.8,4.6,27.7,4.3z"/>
		</g>
		<g>
			<path class="st0" d="M43.7,11V6.7h-3.4V11h-3.1V0.1h3.1v4h3.4v-4h3.1V11H43.7z"/>
		</g>
		<g>
			<path class="st0" d="M56,11l-0.6-1.9h-3.3L51.5,11h-3.2l3.9-10.9h3L59.3,11H56z M54.5,6c-0.1-0.4-0.2-0.7-0.2-0.9
				c-0.1-0.3-0.1-0.5-0.2-0.7C54,4.2,53.9,4,53.9,3.8c0-0.2-0.1-0.3-0.1-0.5c0,0.2-0.1,0.4-0.1,0.5c0,0.2-0.1,0.4-0.1,0.6
				c-0.1,0.2-0.1,0.4-0.2,0.7c-0.1,0.3-0.2,0.6-0.2,0.9l-0.2,0.7h1.8L54.5,6z"/>
		</g>
		<g>
			<path class="st0" d="M64.9,2.7V11h-3V2.7h-3V0.1H68v2.6H64.9z"/>
		</g>
	</g>
	<g>
		<path class="st0" d="M71.5,1.6c-0.1,0.1-0.1,0.2-0.2,0.3c-0.1,0.1-0.2,0.2-0.3,0.2c-0.1,0.1-0.3,0.1-0.4,0.1c-0.2,0-0.3,0-0.4-0.1
			C70,2.2,69.8,2.1,69.7,2c-0.1-0.1-0.2-0.2-0.2-0.3c-0.1-0.1-0.1-0.3-0.1-0.4c0-0.2,0-0.3,0.1-0.4c0.1-0.1,0.1-0.2,0.2-0.3
			c0.1-0.1,0.2-0.2,0.3-0.2c0.1-0.1,0.3-0.1,0.4-0.1c0.2,0,0.3,0,0.4,0.1c0.1,0.1,0.2,0.1,0.3,0.2c0.1,0.1,0.2,0.2,0.2,0.3
			c0.1,0.1,0.1,0.3,0.1,0.4C71.6,1.4,71.6,1.5,71.5,1.6z M71.4,0.8c0-0.1-0.1-0.2-0.2-0.3c-0.1-0.1-0.2-0.1-0.3-0.2
			c-0.1,0-0.2-0.1-0.4-0.1c-0.1,0-0.3,0-0.4,0.1c-0.1,0-0.2,0.1-0.3,0.2c-0.1,0.1-0.1,0.2-0.2,0.3c0,0.1-0.1,0.2-0.1,0.4
			c0,0.1,0,0.3,0.1,0.4c0,0.1,0.1,0.2,0.2,0.3C70,1.9,70,2,70.2,2c0.1,0,0.2,0.1,0.4,0.1c0.1,0,0.3,0,0.4-0.1c0.1,0,0.2-0.1,0.3-0.2
			c0.1-0.1,0.1-0.2,0.2-0.3c0-0.1,0.1-0.2,0.1-0.4C71.4,1.1,71.4,1,71.4,0.8z M71,1.2c0,0.1-0.1,0.1-0.2,0.1L71,1.8h-0.2l-0.2-0.5
			h-0.2v0.5h-0.2V0.6h0.5c0.1,0,0.1,0,0.1,0c0,0,0.1,0,0.1,0.1c0,0,0.1,0.1,0.1,0.1c0,0,0,0.1,0,0.2C71,1,71,1.1,71,1.2z M70.8,0.8
			c0,0-0.1,0-0.1,0h-0.3v0.3h0.3c0.1,0,0.1,0,0.1,0c0,0,0.1-0.1,0.1-0.1C70.8,0.9,70.8,0.9,70.8,0.8z"/>
	</g>
	<g>
		<path class="st0" d="M75.4,11V0H83v2.2h-5.4V4h3.2v2.2h-3.2v2.7h5.7V11H75.4z"/>
		<path class="st0" d="M90.2,2.2V11H88V2.2h-3.2V0h8.5v2.2H90.2z"/>
		<path class="st0" d="M102.2,11V6.4h-4.5V11h-2.2V0h2.2v4.2h4.5V0h2.2v11H102.2z"/>
		<path class="st0" d="M107.3,11V0h7.6v2.2h-5.4V4h3.2v2.2h-3.2v2.7h5.7V11H107.3z"/>
		<path class="st0" d="M117.5,11V0h2.2v8.8h5.5V11H117.5z"/>
	</g>
</g>
</svg>
